<?xml version="1.0" encoding="utf-8"?>
<!-- Generator: Adobe Illustrator 26.3.1, SVG Export Plug-In . SVG Version: 6.00 Build 0)  -->
<svg version="1.1" id="Layer_1" xmlns="http://www.w3.org/2000/svg" xmlns:xlink="http://www.w3.org/1999/xlink" x="0px" y="0px"
	 viewBox="0 0 128.42 144.61" style="enable-background:new 0 0 128.42 144.61;" xml:space="preserve">
<style type="text/css">
	.st0{fill:#EF6535;}
</style>
<g>
	<path class="st0" d="M109.9,90c0-1.21-0.15-2.44,0.03-3.62c0.34-2.2,0.9-4.37,1.34-6.56c0.31-1.58,0.63-3.15,0.84-4.75
		c0.36-2.68-0.57-4.93-2.66-6.58c-1.9-1.49-3.97-2.77-5.94-4.17c-1.55-1.1-3.16-2.15-4.6-3.38c-2.55-2.19-3.5-5.19-3.81-8.42
		c-0.28-2.93-0.4-5.87-0.68-8.8c-0.21-2.21-0.81-4.34-3.01-5.37c-1.41-0.66-2.96-1.1-4.5-1.39c-2.48-0.48-5-0.75-7.51-1.13
		c-3.31-0.51-6.03-2.15-8.31-4.53c-1.56-1.63-3.01-3.38-4.6-4.99c-1.08-1.1-2.25-2.14-3.51-3.04c-1.57-1.12-3.54-1-5.13,0.4
		c-1.78,1.55-3.37,3.32-5.07,4.97c-1.51,1.46-2.97,2.97-4.59,4.29c-2.5,2.03-5.61,2.38-8.68,2.76c-2.19,0.27-4.4,0.46-6.56,0.87
		c-2.12,0.4-4.11,1.21-4.83,3.51c-0.38,1.21-0.52,2.51-0.58,3.78c-0.13,2.53-0.07,5.07-0.2,7.61c-0.13,2.38-0.47,4.78-1.96,6.73
		c-1.02,1.33-2.24,2.53-3.51,3.63c-2.04,1.77-4.23,3.36-6.28,5.1c-2.91,2.48-3.6,5.4-2.16,8.97c1.07,2.65,2.24,5.26,3.32,7.91
		c0.6,1.49,1.06,3.03,1.03,4.62c-2.07-3.99-5.73-6.49-8.91-9.45c-1.65-1.54-3.35-3.06-4.83-4.75c-3.38-3.88-3.7-8.27-1.81-12.92
		c1.32-3.26,3.35-6.11,5.22-9.06c1.62-2.56,3.28-5.14,3.76-8.19c0.41-2.63,0.48-5.31,0.77-7.97c0.32-2.92,0.5-5.88,1.13-8.74
		c1.07-4.87,4.25-8.09,8.91-9.62c3.2-1.05,6.53-1.7,9.83-2.4c3.54-0.75,7.07-1.45,9.98-3.79c1.96-1.57,3.85-3.21,5.76-4.83
		c2.14-1.81,4.27-3.63,6.77-4.98c4.31-2.33,8.61-2.22,12.92-0.07c3.2,1.59,5.91,3.89,8.65,6.15c2.29,1.89,4.55,3.87,7.39,4.89
		c1.66,0.6,3.4,0.97,5.13,1.35c3.53,0.78,7.13,1.33,10.61,2.28c3.48,0.95,6.4,2.88,8.26,6.13c1.44,2.52,1.94,5.31,2.16,8.15
		c0.25,3.34,0.45,6.69,0.63,10.03c0.2,3.64,1.63,6.79,3.66,9.74c2.01,2.92,4.06,5.81,5.87,8.85c1.67,2.81,2.53,5.91,2,9.25
		c-0.37,2.33-1.38,4.42-2.66,6.36c-1.41,2.13-3.01,4.15-4.39,6.3c-1.41,2.19-2.61,4.8-3.87,7.09c-0.33,0.61-0.42,1.07-0.57,1.77
		C110.05,89.99,109.98,90,109.9,90z M110.12,89.64c-0.01,0.21-0.01,0.34,0.01,0.35c0.02-2.71,2.71-7.83,3.51-9.04
		c1.42-2.48,2.91-4.93,4.3-7.43c0.85-1.52,1.52-3.14,1.75-4.9c0.39-3.03-0.55-5.75-2.19-8.19c-1.8-2.69-3.83-5.23-5.77-7.82
		c-1.42-1.9-2.84-3.8-3.72-6.04c-1.19-3.06-1.49-6.29-1.81-9.52c-0.3-3.03-0.55-6.08-1.09-9.08c-0.58-3.17-2.3-5.58-5.41-6.89
		c-2.34-0.99-4.79-1.44-7.26-1.89c-3.24-0.59-6.52-1.05-9.71-1.87c-3.98-1.03-7.05-3.7-10.19-6.2c-2.32-1.85-4.56-3.81-7.24-5.16
		c-3.01-1.51-6.01-1.71-8.96,0.08c-1.32,0.8-2.61,1.7-3.81,2.67c-2.35,1.9-4.63,3.9-6.96,5.83c-3.69,3.07-8.11,4.34-12.73,5.15
		c-2.98,0.52-5.96,1.08-8.87,1.86c-4.04,1.08-6.65,3.75-7.36,7.9c-0.64,3.78-0.97,7.61-1.45,11.42c-0.31,2.47-0.61,4.97-1.84,7.17
		c-1.38,2.47-2.89,4.86-4.47,7.2c-1.72,2.55-3.61,5-4.8,7.86C3,65.64,2.74,68.2,3.88,70.8c0.85,1.92,2.14,3.54,3.55,5.06
		c2.4,2.6,4.83,5.18,7.24,7.77c3.21,4.24,2.85,4.52,3.08,4.78c0.05-0.04-1.03-2.54-1.84-3.48c-0.24-0.27-0.62-0.97-0.84-1.26
		c-0.31-0.42-0.62-0.85-0.94-1.26c-1.99-2.59-4.07-5.11-5.94-7.78c-1.49-2.14-2.1-4.6-1.63-7.23c0.37-2.05,1.2-3.92,2.46-5.56
		c1.79-2.33,3.63-4.64,5.53-6.88c2.5-2.95,3.88-6.26,3.8-10.16c-0.04-1.96-0.1-3.94,0.03-5.89c0.15-2.25,0.29-4.53,0.8-6.72
		c1-4.29,4.04-6.79,8.09-7.99c2.94-0.87,5.98-1.45,9.01-1.96c3.77-0.64,7.06-2.07,9.77-4.85c2.09-2.14,4.26-4.22,6.52-6.18
		c2.15-1.86,4.59-3.24,7.54-3.43c3.22-0.2,6.04,0.9,8.47,2.88c2.27,1.86,4.45,3.85,6.51,5.95c2.78,2.84,5.97,4.73,9.93,5.42
		c3.08,0.54,6.15,1.23,9.16,2.08c2.92,0.82,5.43,2.44,7.1,5.06c1.45,2.28,1.9,4.86,1.98,7.5c0.1,3.16,0.07,6.33,0.24,9.49
		c0.08,1.39,0.4,2.81,0.82,4.14c0.72,2.3,2.41,3.99,3.99,5.72c1.98,2.17,4.08,4.25,5.93,6.53c1.99,2.45,3.18,5.27,2.79,8.56
		c-0.28,2.34-1.18,4.47-2.2,6.55c-0.88,1.81-2.35,4.89-3.53,7.33C110.59,86.45,110.19,88.03,110.12,89.64z M17.76,88.41
		c-0.09-0.19-0.53-2.3-0.63-2.48c-1.46-3.88-2.36-4.62-5.5-9.94c-1-2.09-1.39-4.32-0.64-6.59c0.61-1.84,1.68-3.43,3.08-4.76
		c2.09-1.99,4.24-3.92,6.37-5.87c2.09-1.92,3.11-4.29,3.06-7.12c-0.04-2.21-0.12-4.42-0.16-6.62c-0.04-2.38-0.05-4.76,0.83-7.02
		c1.38-3.52,4.29-5.21,7.75-5.99c2.76-0.62,5.58-0.93,8.38-1.34c2.08-0.31,4.07-0.82,5.65-2.32c0.93-0.88,1.84-1.78,2.7-2.73
		c2.04-2.27,3.97-4.65,6.53-6.38c2.35-1.59,4.9-2.22,7.69-1.54c2.18,0.53,4.01,1.72,5.55,3.3c2.32,2.38,4.52,4.86,6.81,7.27
		c0.96,1.01,2.07,1.9,3.44,2.26c1.65,0.44,3.34,0.73,5.02,1.1c2.6,0.56,5.24,1.01,7.8,1.73c1.96,0.55,3.63,1.72,4.92,3.36
		c1.79,2.26,2.2,4.93,2.32,7.69c0.12,2.89,0.12,5.78,0.28,8.67c0.12,2.21,0.86,4.22,2.56,5.74c1.01,0.91,2.06,1.79,3.14,2.6
		c2.31,1.73,4.76,3.29,6.71,5.45c1.98,2.19,3.06,4.68,2.55,7.7c-0.11,0.65-4.47,12.87-3.98,15.43c-0.48-1.65,4.26-14.57,4.45-15.13
		c1.23-3.72,1.05-7.25-1.69-10.27c-1.85-2.03-3.84-3.93-5.82-5.84c-1.8-1.75-3.65-3.45-4.95-5.63c-1.62-2.73-1.97-5.8-2.19-8.88
		c-0.18-2.61-0.27-5.23-0.45-7.84c-0.28-4.12-2.19-7.03-6.32-8.14c-2-0.54-4.04-0.9-6.06-1.35c-2.5-0.56-5.04-0.96-7.47-1.71
		c-3.15-0.98-5.52-3.22-7.88-5.43c-1.91-1.79-3.75-3.67-5.81-5.26c-3.16-2.45-5.98-2.96-9.38-0.27c-2.49,1.97-4.78,4.21-7.06,6.43
		c-3.27,3.19-7.09,5.16-11.62,5.84c-2.96,0.44-5.94,0.91-8.83,1.67c-4.64,1.22-5.93,3.49-6.48,7.67c-0.3,2.32-0.32,4.67-0.44,7.01
		c-0.14,2.78-0.32,5.56-1.33,8.2c-1.1,2.9-3.24,5.07-5.26,7.32c-1.78,1.99-3.6,3.94-5.21,6.06c-1.83,2.42-2.44,5.18-1.24,8.1
		C10.37,75.94,16.41,83.3,17.76,88.41z"/>
	<path class="st0" d="M95.51,65.45c-1.43-3.89-2.91-7.75-4.36-11.63c-0.18-0.48-0.41-0.66-0.94-0.66
		c-5.62,0.02-11.24,0.02-16.86,0.02c-1.88,0-3.76-0.02-5.65,0.02c-0.27,0.01-0.71,0.24-0.78,0.46c-1.27,3.94-2.5,7.89-3.71,11.85
		c-0.09,0.28-0.06,0.65,0.05,0.94c1.43,3.97,2.9,7.93,4.33,11.9c0.21,0.6,0.48,0.67,1.03,0.47c2.48-0.92,5.08-1.34,7.69-1.42
		c3.16-0.1,6.33-0.01,9.48,0.23c2.07,0.16,4.1,0.72,6.36,1.15c-0.06,0.11-0.11,0.22-0.17,0.33h0.59c0.12-0.52,0.24-1.03,0.36-1.54
		c0.88-3.57,1.82-7.12,2.69-10.69C95.73,66.43,95.67,65.88,95.51,65.45z M90.72,67.4c-0.61,1.98-1.13,3.98-1.66,5.98
		c-0.12,0.48-0.31,0.72-0.83,0.82c-3.34,0.6-6.71,0.81-10.09,0.64c-2.14-0.1-4.27-0.41-6.4-0.69c-0.28-0.04-0.65-0.37-0.76-0.66
		c-0.88-2.31-1.73-4.64-2.53-6.98c-0.15-0.45-0.17-1.03-0.04-1.49c0.61-2.09,1.31-4.15,1.93-6.24c0.17-0.56,0.49-0.68,1.01-0.68
		c2.59,0.02,5.18,0.01,7.77,0.01V58.1c2.59,0,5.18,0.01,7.77-0.01c0.55-0.01,0.83,0.17,1.03,0.69c0.87,2.23,1.77,4.45,2.68,6.66
		C90.88,66.1,90.94,66.69,90.72,67.4z M55.16,53.86c-0.2-0.53-0.45-0.7-1-0.7c-7.5,0.02-15,0.02-22.51,0
		c-0.48,0-0.69,0.16-0.81,0.59c-0.23,0.84-0.47,1.68-0.74,2.51c-0.95,3.01-1.93,6.02-2.86,9.04c-0.11,0.36-0.11,0.83,0.02,1.18
		c1.6,4.17,3.05,8.38,4.39,12.63h0.81c-0.02-0.25,0.17-0.39,0.59-0.46c2.09-0.38,4.16-0.9,6.26-1.14c3.75-0.41,7.52-0.35,11.26,0.2
		c1.77,0.26,3.51,0.76,5.26,1.16c0.41,0.1,0.74,0.18,0.88-0.37c0.97-3.89,1.97-7.77,2.92-11.66c0.11-0.46,0.02-1.04-0.15-1.5
		C58.05,61.5,56.58,57.69,55.16,53.86z M54.82,66.98c-0.57,2.16-1.21,4.3-1.78,6.45c-0.12,0.45-0.31,0.67-0.79,0.76
		c-3.31,0.61-6.66,0.81-10.01,0.65c-2.17-0.1-4.33-0.44-6.49-0.65c-0.44-0.04-0.64-0.24-0.79-0.66c-0.86-2.41-1.78-4.8-2.62-7.22
		c-0.13-0.37-0.07-0.87,0.05-1.26c0.62-2.09,1.31-4.15,1.94-6.24c0.16-0.54,0.42-0.72,0.98-0.72c2.59,0.02,5.18,0.01,7.77,0.01
		c0,0,0,0,0-0.01c2.54,0,5.07,0.02,7.61-0.01c0.7-0.01,1.06,0.22,1.32,0.9c0.88,2.32,1.86,4.59,2.76,6.9
		C54.89,66.21,54.91,66.64,54.82,66.98z"/>
	<path class="st0" d="M92.56,79.1c-0.41,1.82-0.78,3.65-1.28,5.44c-1.42,5.12-3.59,9.88-7.03,13.99c-3.25,3.89-7.32,6.55-12.14,8.09
		c-4.43,1.42-8.97,1.71-13.58,1.41c-3.58-0.24-7-1.04-10.25-2.57c-4.32-2.04-7.59-5.25-10.06-9.3c-2.04-3.35-3.51-6.96-4.62-10.71
		c-0.63-2.12-1.27-4.24-1.94-6.34h0.81c0.01,0.13,0.07,0.28,0.18,0.48c2.03,3.51,3.99,7.07,6.06,10.56
		c2.46,4.13,5.47,7.73,9.8,10.07c2.38,1.28,4.94,2.03,7.59,2.42c4.27,0.63,8.54,0.54,12.78-0.31c5.07-1.01,9.39-3.38,13-7.08
		c3.06-3.13,5.33-6.81,7.34-10.66c0.91-1.73,1.76-3.49,2.75-5.48H92.56z"/>
	<g>
		<g>
			<path class="st0" d="M20.86,134.66l5.14-0.5c0.31,1.73,0.94,2.99,1.88,3.8c0.95,0.81,2.22,1.21,3.83,1.21
				c1.7,0,2.98-0.36,3.85-1.08c0.86-0.72,1.29-1.56,1.29-2.53c0-0.62-0.18-1.15-0.54-1.58c-0.36-0.43-1-0.81-1.9-1.13
				c-0.62-0.21-2.03-0.6-4.23-1.14c-2.83-0.7-4.82-1.57-5.96-2.59c-1.61-1.44-2.41-3.2-2.41-5.27c0-1.33,0.38-2.58,1.13-3.74
				c0.76-1.16,1.84-2.04,3.27-2.65c1.42-0.61,3.14-0.91,5.15-0.91c3.29,0,5.76,0.72,7.42,2.16c1.66,1.44,2.53,3.36,2.62,5.77
				l-5.29,0.23c-0.23-1.34-0.71-2.31-1.46-2.9c-0.74-0.59-1.86-0.88-3.35-0.88c-1.54,0-2.74,0.32-3.61,0.95
				c-0.56,0.4-0.84,0.95-0.84,1.62c0,0.62,0.26,1.15,0.79,1.59c0.67,0.56,2.29,1.14,4.86,1.75c2.57,0.61,4.47,1.24,5.7,1.88
				c1.23,0.65,2.2,1.54,2.89,2.66c0.7,1.12,1.04,2.51,1.04,4.17c0,1.5-0.42,2.9-1.25,4.21c-0.83,1.31-2.01,2.28-3.54,2.92
				c-1.52,0.64-3.42,0.96-5.7,0.96c-3.31,0-5.85-0.76-7.62-2.29C22.27,139.82,21.21,137.59,20.86,134.66z"/>
			<path class="st0" d="M46.59,143.18V117H66v4.43H51.88v5.8h13.14v4.41H51.88v7.12H66.5v4.41H46.59z"/>
			<path class="st0" d="M70.82,143.18v-16.05h5.29v16.05H70.82z"/>
		</g>
		<path class="st0" d="M101.98,117v13.75c0,3.15-0.14,5.37-0.43,6.66c-0.29,1.3-0.81,2.39-1.58,3.28c-0.77,0.89-1.8,1.61-3.08,2.13
			c-1.28,0.53-2.96,0.8-5.04,0.8c-2.5,0-4.39-0.29-5.69-0.87c-1.29-0.57-2.31-1.33-3.06-2.25c-0.75-0.92-1.24-1.89-1.48-2.9
			c-0.35-1.5-0.52-3.71-0.52-6.64v-4.22c0-2.46-2-5.24-4.46-5.24h-5.83V117h6.89c4.79,0,8.68,3.88,8.68,8.68v5.5
			c0,2.25,0.06,3.71,0.19,4.37c0.23,1.07,0.77,1.93,1.62,2.58c0.85,0.65,2.02,0.97,3.49,0.97c1.5,0,2.63-0.31,3.39-0.92
			c0.76-0.61,1.22-1.37,1.37-2.26c0.16-0.89,0.23-2.38,0.23-4.45V117H101.98z"/>
	</g>
</g>
</svg>
