<?xml version="1.0" encoding="utf-8"?>
<!-- Generator: Adobe Illustrator 26.3.1, SVG Export Plug-In . SVG Version: 6.00 Build 0)  -->
<svg version="1.1" id="Layer_1" xmlns="http://www.w3.org/2000/svg" xmlns:xlink="http://www.w3.org/1999/xlink" x="0px" y="0px"
	 viewBox="0 0 787.09 253.99" style="enable-background:new 0 0 787.09 253.99;" xml:space="preserve">
<style type="text/css">
	.st0{fill:#EF6535;}
</style>
<g>
	<g>
		<path class="st0" d="M0,169.78l49.9-4.69c3,16.19,9.1,28.08,18.28,35.66c9.18,7.59,21.57,11.39,37.16,11.39
			c16.52,0,28.96-3.38,37.34-10.13c8.37-6.75,12.56-14.65,12.56-23.69c0-5.8-1.76-10.74-5.28-14.82
			c-3.52-4.07-9.67-7.62-18.45-10.63c-6.01-2.01-19.69-5.58-41.06-10.71c-27.49-6.59-46.78-14.68-57.87-24.28
			C16.98,104.37,9.18,87.9,9.18,68.48c0-12.5,3.67-24.2,11-35.08c7.33-10.88,17.9-19.17,31.71-24.86C65.69,2.84,82.35,0,101.87,0
			c31.88,0,55.87,6.75,71.99,20.26c16.11,13.51,24.57,31.54,25.38,54.08l-51.28,2.18c-2.2-12.61-6.9-21.68-14.12-27.21
			c-7.22-5.53-18.05-8.29-32.48-8.29c-14.9,0-26.57,2.96-35,8.88c-5.43,3.8-8.14,8.87-8.14,15.24c0,5.8,2.54,10.77,7.62,14.9
			c6.47,5.25,22.18,10.72,47.12,16.41c24.95,5.69,43.4,11.58,55.35,17.66c11.95,6.08,21.31,14.4,28.07,24.95
			c6.76,10.55,10.13,23.58,10.13,39.1c0,14.06-4.04,27.24-12.13,39.51c-8.09,12.28-19.52,21.4-34.3,27.38
			c-14.79,5.97-33.21,8.96-55.27,8.96c-32.11,0-56.77-7.17-73.98-21.52C13.63,218.14,3.35,197.23,0,169.78z"/>
		<path class="st0" d="M249.66,253.99V0.01h188.33v42.97H300.94v56.3h127.51v42.8H300.94v69.13h141.89v42.79H249.66z"/>
		<path class="st0" d="M484.76,253.99V98.3h51.28v155.69H484.76z"/>
	</g>
	<path class="st0" d="M787.09,0v131.17c0,30.01-1.38,51.2-4.16,63.56c-2.79,12.39-7.87,22.84-15.32,31.33
		c-7.45,8.53-17.42,15.33-29.91,20.36c-12.45,5.07-28.76,7.59-48.86,7.59c-24.26,0-42.63-2.74-55.16-8.26
		c-12.53-5.48-22.42-12.66-29.72-21.45c-7.26-8.79-12.07-18.03-14.36-27.68c-3.36-14.31-5.04-35.42-5.04-63.37V92.96
		c0-23.48-19.36-49.99-43.24-49.99h-56.54V0h66.89c46.5,0,84.19,37.07,84.19,82.79v52.47c0,21.49,0.61,35.38,1.87,41.73
		c2.22,10.22,7.45,18.44,15.7,24.64c8.25,6.16,19.56,9.28,33.88,9.28c14.55,0,25.52-2.93,32.89-8.79
		c7.41-5.82,11.84-13.03,13.33-21.52c1.53-8.53,2.25-22.69,2.25-42.44V0H787.09z"/>
</g>
</svg>
