<?xml version="1.0" encoding="utf-8"?>
<!-- Generator: Adobe Illustrator 26.3.1, SVG Export Plug-In . SVG Version: 6.00 Build 0)  -->
<svg version="1.1" id="Layer_1" xmlns="http://www.w3.org/2000/svg" xmlns:xlink="http://www.w3.org/1999/xlink" x="0px" y="0px"
	 viewBox="0 0 1306.94 1055.19" style="enable-background:new 0 0 1306.94 1055.19;" xml:space="preserve">
<style type="text/css">
	.st0{clip-path:url(#SVGID_00000065051261845948842510000010457237234988348044_);}
	.st1{fill:#1B1A17;}
	.st2{fill:#EF6535;}
</style>
<g id="Group_8" transform="translate(-2.881 822.392) rotate(-90)">
	<g>
		<defs>
			<rect id="SVGID_1_" x="-319.19" y="89.27" width="1306.94" height="1134.16"/>
		</defs>
		<clipPath id="SVGID_00000005967448873190084130000003078484006589385406_">
			<use xlink:href="#SVGID_1_"  style="overflow:visible;"/>
		</clipPath>
		
			<g id="Group_7" transform="translate(233 2.881)" style="clip-path:url(#SVGID_00000005967448873190084130000003078484006589385406_);">
			<path class="st1" d="M572.77,140.36c0.24-0.49,0.47-0.99,0.69-1.5c2.59-5.86,4.35-12.91,4.35-22.61c0-9.68-1.76-16.74-4.35-22.59
				c-0.22-0.51-0.45-1.01-0.69-1.5c0.23,0.28,0.46,0.56,0.69,0.85c4.78,5.98,8.1,13.2,8.1,23.24c0,10.06-3.32,17.28-8.1,23.26
				C573.23,139.79,573,140.08,572.77,140.36z"/>
			<path class="st1" d="M572.77,283.1c0.24-0.49,0.47-0.99,0.69-1.5c2.59-5.86,4.35-12.91,4.35-22.61c0-9.68-1.76-16.74-4.35-22.59
				c-0.22-0.51-0.45-1.01-0.69-1.5c0.23,0.28,0.46,0.56,0.69,0.85c4.78,5.98,8.1,13.2,8.1,23.24V259c0,10.05-3.32,17.27-8.1,23.25
				C573.23,282.54,573,282.82,572.77,283.1z"/>
			<path class="st1" d="M572.77,425.84c0.24-0.49,0.47-0.99,0.69-1.5c2.59-5.86,4.35-12.91,4.35-22.61c0-9.68-1.76-16.74-4.35-22.59
				c-0.22-0.51-0.45-1.01-0.69-1.5c0.23,0.28,0.46,0.56,0.69,0.85c4.78,5.98,8.1,13.21,8.1,23.24c0,10.06-3.32,17.28-8.1,23.26
				C573.23,425.27,573,425.56,572.77,425.84z"/>
			<path class="st1" d="M572.77,568.58c0.24-0.49,0.47-0.99,0.69-1.5c2.59-5.85,4.35-12.91,4.35-22.59s-1.77-16.75-4.35-22.61
				c-0.22-0.51-0.45-1.01-0.69-1.49c0.23,0.28,0.46,0.57,0.69,0.85c4.78,5.99,8.1,13.21,8.1,23.25c0,10.04-3.32,17.26-8.1,23.24
				C573.23,568.02,573,568.3,572.77,568.58z"/>
			<path class="st1" d="M572.77,711.32c0.24-0.49,0.47-0.99,0.69-1.5c2.59-5.86,4.35-12.91,4.35-22.61c0-9.68-1.76-16.74-4.35-22.59
				c-0.21-0.5-0.44-0.99-0.68-1.48c0.23,0.28,0.46,0.56,0.68,0.84c4.78,5.98,8.1,13.2,8.1,23.24c0,10.05-3.32,17.27-8.1,23.25
				C573.23,710.76,573,711.04,572.77,711.32z"/>
			<path class="st1" d="M572.77,854.05c0.24-0.49,0.47-0.98,0.69-1.49c2.58-5.86,4.35-12.92,4.35-22.6c0-9.7-1.77-16.76-4.35-22.62
				c-0.22-0.5-0.44-0.99-0.68-1.47c0.23,0.28,0.46,0.55,0.68,0.84c4.78,5.98,8.1,13.19,8.1,23.25c0,10.04-3.32,17.26-8.1,23.24
				C573.24,853.49,573.01,853.77,572.77,854.05z"/>
			<path class="st1" d="M572.76,996.79c0.25-0.5,0.48-1,0.7-1.51c2.58-5.86,4.35-12.92,4.35-22.6s-1.77-16.74-4.35-22.6
				c-0.22-0.5-0.44-0.99-0.68-1.47c0.23,0.28,0.46,0.56,0.68,0.84c4.78,5.98,8.1,13.2,8.1,23.24s-3.32,17.26-8.1,23.24
				C573.23,996.22,573,996.5,572.76,996.79z"/>
			<path class="st1" d="M572.77,1139.5c0.24-0.49,0.47-0.99,0.69-1.5c2.59-5.85,4.35-12.91,4.35-22.59c0-9.68-1.76-16.75-4.35-22.6
				c-0.22-0.51-0.45-1-0.69-1.49c0.23,0.28,0.46,0.56,0.69,0.85c4.78,5.98,8.1,13.2,8.1,23.24c0,10.04-3.32,17.27-8.1,23.24
				C573.24,1138.94,573.01,1139.22,572.77,1139.5z"/>
			<path class="st1" d="M572.77,1284.17c0.24-0.49,0.47-0.99,0.69-1.5c2.59-5.87,4.35-12.93,4.35-22.64
				c0-9.69-1.76-16.77-4.35-22.62c-0.21-0.5-0.44-0.99-0.68-1.48c0.23,0.28,0.46,0.56,0.68,0.84c4.78,5.99,8.1,13.22,8.1,23.28
				c0,10.06-3.32,17.3-8.1,23.28C573.23,1283.61,573,1283.89,572.77,1284.17z"/>
			<path class="st1" d="M-465.8,1306.94V-1.96H572.57c-0.36,0.73-0.73,1.44-1.12,2.14c-4.23,7.79-9.66,13.78-13.38,22.36
				c-0.03,0.08-0.06,0.15-0.1,0.24c-2.46,5.77-4.14,12.71-4.14,22.16s1.68,16.39,4.14,22.16c0.03,0.09,0.07,0.16,0.1,0.24
				c3.71,8.56,9.15,14.56,13.38,22.35c0.45,0.83,0.89,1.68,1.3,2.56c0.01,0.01,0.02,0.02,0.02,0.03c0.24,0.49,0.47,0.99,0.69,1.5
				c2.59,5.86,4.35,12.93,4.35,22.62c0,9.71-1.76,16.78-4.35,22.64c-0.22,0.51-0.45,1.01-0.69,1.5c0,0.01-0.01,0.02-0.02,0.03
				c-0.41,0.88-0.85,1.73-1.3,2.56c-4.23,7.79-9.67,13.77-13.38,22.33c-0.03,0.08-0.06,0.17-0.1,0.24
				c-2.46,5.77-4.14,12.71-4.14,22.16c0,9.45,1.68,16.39,4.14,22.16c0.03,0.09,0.07,0.16,0.1,0.24c3.71,8.56,9.15,14.56,13.38,22.35
				c0.45,0.83,0.89,1.68,1.3,2.56c0.01,0.01,0.02,0.02,0.02,0.03c0.24,0.49,0.47,0.99,0.69,1.5c2.59,5.86,4.35,12.93,4.35,22.62
				c0,9.71-1.76,16.78-4.35,22.64c-0.22,0.51-0.45,1.01-0.69,1.5c0,0.01-0.01,0.02-0.02,0.03c-0.41,0.88-0.85,1.73-1.3,2.56
				c-4.23,7.79-9.67,13.77-13.38,22.33c-0.03,0.08-0.06,0.17-0.1,0.24c-2.46,5.77-4.14,12.71-4.14,22.16s1.68,16.39,4.14,22.16
				c0.03,0.09,0.07,0.17,0.1,0.24c3.71,8.56,9.15,14.56,13.38,22.35c0.45,0.83,0.89,1.68,1.3,2.56c0.01,0.01,0.02,0.02,0.02,0.03
				c0.24,0.49,0.47,0.99,0.69,1.5c2.59,5.86,4.35,12.93,4.35,22.62c0,9.71-1.76,16.78-4.35,22.64c-0.22,0.51-0.45,1.01-0.69,1.5
				c0,0.01-0.01,0.02-0.02,0.03c-0.41,0.88-0.85,1.73-1.3,2.56c-4.23,7.79-9.67,13.77-13.38,22.34c-0.03,0.07-0.06,0.16-0.1,0.23
				c-2.46,5.77-4.14,12.71-4.14,22.16s1.68,16.39,4.14,22.16c0.03,0.09,0.07,0.17,0.1,0.24c3.71,8.56,9.15,14.56,13.38,22.35
				c0.45,0.83,0.89,1.69,1.3,2.57c0.01,0.01,0.02,0.02,0.02,0.03c0.24,0.48,0.47,0.98,0.69,1.49c2.58,5.87,4.35,12.95,4.35,22.64
				c0,9.69-1.76,16.77-4.35,22.62c-0.22,0.51-0.45,1.01-0.69,1.5c0,0.01-0.01,0.02-0.02,0.03c-0.41,0.88-0.85,1.73-1.3,2.56
				c-4.23,7.79-9.67,13.79-13.38,22.35c-0.03,0.08-0.06,0.15-0.1,0.24c-2.46,5.77-4.14,12.72-4.14,22.16
				c0,9.44,1.68,16.39,4.14,22.16c0.03,0.07,0.07,0.15,0.1,0.24c3.71,8.56,9.15,14.54,13.38,22.33c0.46,0.85,0.91,1.71,1.33,2.6
				v0.01c0.24,0.49,0.47,0.98,0.68,1.48c2.59,5.86,4.35,12.93,4.35,22.62c0,9.71-1.76,16.78-4.35,22.64
				c-0.22,0.51-0.45,1.01-0.69,1.5c0,0.01-0.01,0.02-0.02,0.03c-0.41,0.88-0.85,1.73-1.3,2.56c-4.23,7.8-9.67,13.77-13.38,22.34
				c-0.03,0.07-0.06,0.16-0.1,0.23c-2.46,5.78-4.14,12.71-4.14,22.17c0,9.45,1.68,16.39,4.14,22.16c0.03,0.07,0.07,0.16,0.1,0.23
				c3.71,8.57,9.15,14.55,13.38,22.34c0.46,0.85,0.91,1.71,1.33,2.6v0.01c0.24,0.48,0.46,0.97,0.68,1.47
				c2.58,5.87,4.35,12.94,4.35,22.65c0,9.69-1.77,16.77-4.35,22.63c-0.22,0.51-0.45,1-0.69,1.49c0,0.01-0.01,0.02-0.02,0.03
				c-0.41,0.88-0.85,1.73-1.3,2.56c-4.23,7.79-9.67,13.77-13.38,22.33c-0.03,0.09-0.06,0.17-0.1,0.24
				c-2.46,5.77-4.14,12.73-4.14,22.16c0,9.44,1.68,16.39,4.14,22.16c0.03,0.09,0.07,0.17,0.1,0.24c3.71,8.56,9.15,14.56,13.38,22.35
				c0.46,0.85,0.91,1.71,1.33,2.6v0.01c0.24,0.48,0.46,0.97,0.68,1.47c2.58,5.87,4.35,12.94,4.35,22.63
				c0,9.69-1.77,16.77-4.35,22.63c-0.22,0.51-0.45,1.01-0.7,1.51c0,0,0,0.01-0.01,0.02c-0.41,0.87-0.85,1.72-1.3,2.55
				c-4.23,7.8-9.67,13.79-13.38,22.35c-0.03,0.08-0.06,0.15-0.1,0.24c-2.46,5.77-4.14,12.73-4.14,22.16
				c0,9.44,1.68,16.39,4.14,22.16c0.03,0.08,0.07,0.15,0.1,0.24c3.71,8.56,9.15,14.54,13.38,22.34c0.45,0.83,0.89,1.68,1.3,2.56
				c0.01,0.01,0.02,0.02,0.02,0.03c0.24,0.49,0.47,0.98,0.69,1.49c2.59,5.86,4.35,12.94,4.35,22.63c0,9.69-1.76,16.77-4.35,22.62
				c-0.22,0.51-0.45,1.01-0.69,1.5c0,0.01-0.01,0.02-0.02,0.03c-0.41,0.88-0.85,1.73-1.3,2.56c-4.23,7.79-9.67,13.77-13.38,22.33
				c-0.03,0.09-0.06,0.17-0.1,0.24c-2.46,5.77-4.14,12.73-4.14,22.16c0,9.44,1.68,16.39,4.14,22.16c0.03,0.09,0.07,0.17,0.1,0.24
				c3.71,8.56,9.15,14.56,13.38,22.35c0.46,0.85,0.91,1.71,1.33,2.6v0.01c0.24,0.49,0.47,0.98,0.68,1.48
				c2.59,5.86,4.35,12.93,4.35,22.62c0,9.71-1.76,16.78-4.35,22.64c-0.22,0.51-0.45,1.01-0.69,1.5c0,0.01-0.01,0.02-0.02,0.03
				c-0.41,0.88-0.85,1.73-1.3,2.56c-3.85,7.1-8.72,12.72-12.37,20.16H571c0.15-0.28,0.3-0.57,0.45-0.85
				c0.65-1.19,1.32-2.37,2.01-3.54v4.4"/>
			<path class="st1" d="M573.46,93.66c-0.22-0.51-0.45-1.01-0.69-1.5c0-0.01-0.01-0.02-0.02-0.03c-0.41-0.88-0.85-1.73-1.3-2.56
				c-4.23-7.78-9.67-13.77-13.38-22.32c-0.03-0.08-0.07-0.15-0.1-0.24c-2.46-5.76-4.14-12.69-4.14-22.13s1.68-16.37,4.14-22.13
				c0.04-0.09,0.07-0.16,0.1-0.24c3.72-8.57,9.15-14.55,13.38-22.33c0.39-0.7,0.76-1.41,1.12-2.14h0.89v16.68
				c-0.69,1.12-1.36,2.26-2.01,3.45c-3.62,6.67-6.35,14.64-6.35,26.68c0,12.06,2.74,20.03,6.35,26.68c0.64,1.19,1.32,2.33,2.01,3.45
				V93.66z"/>
			<path class="st1" d="M573.46,236.4c-0.22-0.51-0.45-1.01-0.69-1.5c0-0.01-0.01-0.02-0.02-0.03c-0.41-0.88-0.85-1.73-1.3-2.56
				c-4.23-7.78-9.67-13.77-13.38-22.32c-0.03-0.08-0.07-0.15-0.1-0.24c-2.46-5.76-4.14-12.69-4.14-22.13s1.68-16.37,4.14-22.13
				c0.04-0.07,0.07-0.16,0.1-0.24c3.71-8.55,9.15-14.52,13.38-22.3c0.45-0.83,0.89-1.68,1.3-2.56c0.01-0.01,0.02-0.02,0.02-0.03
				c0.24-0.49,0.47-0.99,0.69-1.5v18.61c-0.7,1.12-1.37,2.26-2.01,3.44c-3.62,6.65-6.35,14.63-6.35,26.67
				c0,12.05,2.74,20.03,6.35,26.68c0.64,1.19,1.32,2.33,2.01,3.45V236.4z"/>
			<path class="st1" d="M573.46,379.14c-0.22-0.51-0.45-1.01-0.69-1.5c0-0.01-0.01-0.02-0.02-0.03c-0.41-0.88-0.85-1.73-1.3-2.56
				c-4.23-7.78-9.67-13.77-13.38-22.32c-0.03-0.07-0.07-0.15-0.1-0.24c-2.46-5.76-4.14-12.69-4.14-22.13s1.68-16.37,4.14-22.13
				c0.04-0.07,0.07-0.16,0.1-0.24c3.71-8.55,9.15-14.52,13.38-22.3c0.45-0.83,0.89-1.68,1.3-2.56c0.01-0.01,0.02-0.02,0.02-0.03
				c0.24-0.49,0.47-0.99,0.69-1.5v18.59c-0.69,1.12-1.37,2.26-2.01,3.45c-3.62,6.64-6.35,14.62-6.35,26.68
				c0,12.04,2.74,20.02,6.35,26.67c0.64,1.18,1.31,2.32,2.01,3.44V379.14z"/>
			<path class="st1" d="M573.46,521.88c-0.22-0.51-0.45-1.01-0.69-1.49c0-0.01-0.01-0.02-0.02-0.03c-0.41-0.88-0.85-1.74-1.3-2.57
				c-4.23-7.78-9.67-13.77-13.38-22.32c-0.03-0.07-0.07-0.15-0.1-0.24c-2.46-5.76-4.14-12.69-4.14-22.13s1.68-16.37,4.14-22.13
				c0.04-0.07,0.07-0.16,0.1-0.23c3.71-8.56,9.15-14.53,13.38-22.31c0.45-0.83,0.89-1.68,1.3-2.56c0.01-0.01,0.02-0.02,0.02-0.03
				c0.24-0.49,0.47-0.99,0.69-1.5v18.59c-0.7,1.12-1.37,2.26-2.01,3.44c-3.62,6.64-6.35,14.62-6.35,26.68
				c0,12.05,2.74,20.03,6.35,26.68c0.64,1.18,1.31,2.32,2.01,3.44V521.88z"/>
			<path class="st1" d="M573.46,664.62c-0.21-0.5-0.44-0.99-0.68-1.48v-0.01c-0.42-0.89-0.87-1.75-1.33-2.6
				c-4.23-7.78-9.67-13.75-13.38-22.3c-0.03-0.09-0.07-0.17-0.1-0.24c-2.46-5.76-4.14-12.7-4.14-22.13s1.68-16.37,4.14-22.13
				c0.04-0.09,0.07-0.16,0.1-0.24c3.71-8.55,9.15-14.54,13.38-22.32c0.45-0.83,0.89-1.68,1.3-2.56c0.01-0.01,0.02-0.02,0.02-0.03
				c0.24-0.49,0.47-0.99,0.69-1.5v18.58c-0.69,1.12-1.37,2.26-2.01,3.45c-3.62,6.64-6.35,14.62-6.35,26.66
				c0,12.06,2.74,20.03,6.35,26.68c0.64,1.19,1.32,2.33,2.01,3.45V664.62z"/>
			<path class="st1" d="M573.46,807.34c-0.22-0.5-0.44-0.99-0.68-1.47v-0.01c-0.42-0.89-0.87-1.75-1.33-2.6
				c-4.23-7.78-9.67-13.75-13.38-22.31c-0.03-0.07-0.07-0.16-0.1-0.23c-2.46-5.76-4.14-12.69-4.14-22.13
				c0-9.45,1.68-16.37,4.14-22.14c0.04-0.07,0.07-0.16,0.1-0.23c3.71-8.56,9.15-14.52,13.38-22.31c0.45-0.83,0.89-1.68,1.3-2.56
				c0.01-0.01,0.02-0.02,0.02-0.03c0.24-0.49,0.47-0.99,0.69-1.5v18.58c-0.69,1.12-1.37,2.26-2.01,3.45
				c-3.62,6.64-6.35,14.62-6.35,26.66c0,12.06,2.74,20.04,6.35,26.68c0.64,1.19,1.32,2.33,2.01,3.45V807.34z"/>
			<path class="st1" d="M573.46,950.08c-0.22-0.5-0.44-0.99-0.68-1.47v-0.01c-0.42-0.89-0.87-1.75-1.33-2.6
				c-4.23-7.78-9.67-13.77-13.38-22.32c-0.03-0.07-0.07-0.15-0.1-0.24c-2.46-5.76-4.14-12.7-4.14-22.13
				c0-9.42,1.68-16.37,4.14-22.13c0.04-0.07,0.07-0.15,0.1-0.24c3.71-8.55,9.15-14.52,13.38-22.3c0.45-0.83,0.89-1.68,1.3-2.56
				c0.01-0.01,0.02-0.02,0.02-0.03c0.24-0.49,0.47-0.98,0.69-1.49v18.58c-0.69,1.12-1.37,2.26-2.01,3.45
				c-3.62,6.64-6.35,14.62-6.35,26.66c0,12.06,2.74,20.04,6.35,26.68c0.64,1.19,1.32,2.33,2.01,3.45V950.08z"/>
			<path class="st1" d="M573.46,1092.81c-0.22-0.51-0.45-1-0.69-1.49c0-0.01-0.01-0.02-0.02-0.03c-0.41-0.88-0.85-1.73-1.3-2.56
				c-4.23-7.79-9.67-13.76-13.38-22.31c-0.03-0.09-0.07-0.16-0.1-0.24c-2.46-5.76-4.14-12.7-4.14-22.13
				c0-9.42,1.68-16.37,4.14-22.13c0.04-0.09,0.07-0.16,0.1-0.24c3.71-8.55,9.15-14.53,13.38-22.32c0.45-0.83,0.89-1.68,1.3-2.55
				c0.01-0.01,0.01-0.02,0.01-0.02c0.25-0.5,0.48-1,0.7-1.51v18.6c-0.69,1.12-1.37,2.26-2.01,3.45c-3.62,6.64-6.35,14.62-6.35,26.66
				c0,12.06,2.74,20.04,6.35,26.68c0.64,1.19,1.32,2.33,2.01,3.45V1092.81z"/>
			<path class="st1" d="M573.46,1237.4c-0.21-0.5-0.44-0.99-0.68-1.48v-0.01c-0.42-0.89-0.87-1.75-1.33-2.6
				c-4.23-7.79-9.67-13.79-13.38-22.35c-0.03-0.07-0.07-0.15-0.1-0.24c-2.46-5.77-4.14-12.72-4.14-22.16
				c0-9.43,1.68-16.39,4.14-22.16c0.04-0.07,0.07-0.15,0.1-0.24c3.71-8.56,9.15-14.54,13.38-22.33c0.45-0.83,0.89-1.68,1.3-2.56
				c0.01-0.01,0.02-0.02,0.02-0.03c0.24-0.49,0.47-0.99,0.69-1.5v18.65c-0.69,1.12-1.37,2.26-2.01,3.46
				c-3.62,6.66-6.35,14.64-6.35,26.7c0,12.08,2.74,20.07,6.35,26.72c0.64,1.19,1.32,2.33,2.01,3.46V1237.4z"/>
			<path class="st1" d="M571,1306.93h-11.92c3.65-7.44,8.52-13.06,12.37-20.16c0.45-0.83,0.89-1.68,1.3-2.56
				c0.01-0.01,0.02-0.02,0.02-0.03c0.24-0.49,0.47-0.99,0.69-1.5v19.87c-0.69,1.16-1.36,2.34-2.01,3.54
				C571.3,1306.35,571.15,1306.65,571,1306.93z"/>
			<path class="st2" d="M571,1306.93h-11.92c3.65-7.44,8.52-13.06,12.37-20.16c0.45-0.83,0.89-1.68,1.3-2.56
				c0.01-0.01,0.02-0.02,0.02-0.03c0.24-0.49,0.47-0.99,0.69-1.5c2.59-5.87,4.35-12.93,4.35-22.64c0-9.69-1.76-16.77-4.35-22.62
				c-0.21-0.5-0.44-0.99-0.68-1.48v-0.01c-0.42-0.89-0.87-1.75-1.33-2.6c-4.23-7.79-9.67-13.79-13.38-22.35
				c-0.03-0.07-0.07-0.15-0.1-0.24c-2.46-5.77-4.14-12.72-4.14-22.16c0-9.43,1.68-16.39,4.14-22.16c0.04-0.07,0.07-0.15,0.1-0.24
				c3.71-8.56,9.15-14.54,13.38-22.33c0.45-0.83,0.89-1.68,1.3-2.56c0.01-0.01,0.02-0.02,0.02-0.03c0.24-0.49,0.47-0.99,0.69-1.5
				c2.59-5.86,4.35-12.93,4.35-22.62c0-9.69-1.76-16.78-4.35-22.63c-0.22-0.51-0.45-1-0.69-1.49c0-0.01-0.01-0.02-0.02-0.03
				c-0.41-0.88-0.85-1.73-1.3-2.56c-4.23-7.8-9.67-13.78-13.38-22.34c-0.03-0.09-0.07-0.16-0.1-0.24
				c-2.46-5.77-4.14-12.72-4.14-22.16c0-9.43,1.68-16.39,4.14-22.16c0.04-0.09,0.07-0.16,0.1-0.24c3.71-8.56,9.15-14.55,13.38-22.35
				c0.45-0.83,0.89-1.68,1.3-2.55c0.01-0.01,0.01-0.02,0.01-0.02c0.25-0.5,0.48-1,0.7-1.51c2.58-5.87,4.35-12.94,4.35-22.63
				c0-9.69-1.77-16.77-4.35-22.63c-0.22-0.5-0.44-0.99-0.68-1.47v-0.01c-0.42-0.89-0.87-1.75-1.33-2.6
				c-4.23-7.79-9.67-13.79-13.38-22.35c-0.03-0.07-0.07-0.15-0.1-0.24c-2.46-5.77-4.14-12.72-4.14-22.16
				c0-9.43,1.68-16.39,4.14-22.16c0.04-0.07,0.07-0.15,0.1-0.24c3.71-8.56,9.15-14.54,13.38-22.33c0.45-0.83,0.89-1.68,1.3-2.56
				c0.01-0.01,0.02-0.02,0.02-0.03c0.24-0.49,0.47-0.98,0.69-1.49c2.58-5.87,4.35-12.94,4.35-22.63c0-9.71-1.77-16.79-4.35-22.65
				c-0.22-0.5-0.44-0.99-0.68-1.47v-0.01c-0.42-0.89-0.87-1.75-1.33-2.6c-4.23-7.79-9.67-13.77-13.38-22.34
				c-0.03-0.07-0.07-0.16-0.1-0.23c-2.46-5.77-4.14-12.71-4.14-22.16c0-9.46,1.68-16.39,4.14-22.17c0.04-0.07,0.07-0.16,0.1-0.23
				c3.71-8.57,9.15-14.54,13.38-22.34c0.45-0.83,0.89-1.68,1.3-2.56c0.01-0.01,0.02-0.02,0.02-0.03c0.24-0.49,0.47-0.99,0.69-1.5
				c2.59-5.87,4.35-12.93,4.35-22.64c0-9.69-1.76-16.77-4.35-22.62c-0.21-0.5-0.44-0.99-0.68-1.48v-0.01
				c-0.42-0.89-0.87-1.75-1.33-2.6c-4.23-7.79-9.67-13.77-13.38-22.33c-0.03-0.09-0.07-0.17-0.1-0.24
				c-2.46-5.77-4.14-12.72-4.14-22.16c0-9.44,1.68-16.39,4.14-22.16c0.04-0.09,0.07-0.16,0.1-0.24c3.71-8.56,9.15-14.56,13.38-22.35
				c0.45-0.83,0.89-1.68,1.3-2.56c0.01-0.01,0.02-0.02,0.02-0.03c0.24-0.49,0.47-0.99,0.69-1.5c2.59-5.86,4.35-12.93,4.35-22.62
				c0-9.69-1.77-16.78-4.35-22.64c-0.22-0.51-0.45-1.01-0.69-1.49c0-0.01-0.01-0.02-0.02-0.03c-0.41-0.88-0.85-1.74-1.3-2.57
				c-4.23-7.79-9.67-13.79-13.38-22.35c-0.03-0.07-0.07-0.15-0.1-0.24c-2.46-5.77-4.14-12.71-4.14-22.16s1.68-16.39,4.14-22.16
				c0.04-0.07,0.07-0.16,0.1-0.23c3.71-8.57,9.15-14.55,13.38-22.34c0.45-0.83,0.89-1.68,1.3-2.56c0.01-0.01,0.02-0.02,0.02-0.03
				c0.24-0.49,0.47-0.99,0.69-1.5c2.59-5.87,4.35-12.93,4.35-22.64c0-9.69-1.76-16.77-4.35-22.62c-0.22-0.51-0.45-1.01-0.69-1.5
				c0-0.01-0.01-0.02-0.02-0.03c-0.41-0.88-0.85-1.73-1.3-2.56c-4.23-7.79-9.67-13.79-13.38-22.35c-0.03-0.07-0.07-0.15-0.1-0.24
				c-2.46-5.77-4.14-12.71-4.14-22.16s1.68-16.39,4.14-22.16c0.04-0.07,0.07-0.16,0.1-0.24c3.71-8.56,9.15-14.54,13.38-22.33
				c0.45-0.83,0.89-1.68,1.3-2.56c0.01-0.01,0.02-0.02,0.02-0.03c0.24-0.49,0.47-0.99,0.69-1.5c2.59-5.87,4.35-12.93,4.35-22.64
				c0-9.69-1.76-16.77-4.35-22.62c-0.22-0.51-0.45-1.01-0.69-1.5c0-0.01-0.01-0.02-0.02-0.03c-0.41-0.88-0.85-1.73-1.3-2.56
				c-4.23-7.79-9.67-13.79-13.38-22.35c-0.03-0.08-0.07-0.15-0.1-0.24c-2.46-5.77-4.14-12.71-4.14-22.16
				c0-9.45,1.68-16.39,4.14-22.16c0.04-0.07,0.07-0.16,0.1-0.24c3.71-8.56,9.15-14.54,13.38-22.33c0.45-0.83,0.89-1.68,1.3-2.56
				c0.01-0.01,0.02-0.02,0.02-0.03c0.24-0.49,0.47-0.99,0.69-1.5c2.59-5.87,4.35-12.93,4.35-22.64c0-9.69-1.76-16.77-4.35-22.62
				c-0.22-0.51-0.45-1.01-0.69-1.5c0-0.01-0.01-0.02-0.02-0.03c-0.41-0.88-0.85-1.73-1.3-2.56c-4.23-7.79-9.67-13.79-13.38-22.35
				c-0.03-0.08-0.07-0.15-0.1-0.24c-2.46-5.77-4.14-12.71-4.14-22.16s1.68-16.39,4.14-22.16c0.04-0.09,0.07-0.16,0.1-0.24
				c3.72-8.58,9.15-14.57,13.38-22.36c0.39-0.7,0.76-1.41,1.12-2.14h11.26c-3.04,6.2-6.93,11.13-10.37,16.71
				c-0.69,1.12-1.36,2.26-2.01,3.46c-3.62,6.68-6.35,14.66-6.35,26.72c0,12.08,2.74,20.06,6.35,26.72c0.64,1.19,1.32,2.33,2.01,3.46
				c6.93,11.23,15.63,19.78,15.63,41.3c0,21.53-8.71,30.1-15.63,41.31c-0.7,1.12-1.37,2.26-2.01,3.45
				c-3.62,6.66-6.35,14.65-6.35,26.71c0,12.07,2.74,20.06,6.35,26.72c0.64,1.19,1.32,2.33,2.01,3.46
				c6.93,11.22,15.63,19.78,15.63,41.3c0,21.51-8.7,30.08-15.63,41.3c-0.69,1.12-1.37,2.26-2.01,3.46
				c-3.62,6.65-6.35,14.64-6.35,26.72c0,12.06,2.74,20.05,6.35,26.71c0.64,1.18,1.31,2.32,2.01,3.45
				c6.92,11.22,15.63,19.78,15.63,41.31c0,21.52-8.71,30.1-15.63,41.31c-0.7,1.12-1.37,2.26-2.01,3.45
				c-3.62,6.65-6.35,14.64-6.35,26.72c0,12.07,2.74,20.06,6.35,26.72c0.64,1.18,1.31,2.32,2.01,3.45
				c6.92,11.22,15.63,19.78,15.63,41.31c0,21.51-8.7,30.08-15.63,41.3c-0.69,1.12-1.37,2.26-2.01,3.46
				c-3.62,6.65-6.35,14.64-6.35,26.7c0,12.08,2.74,20.06,6.35,26.72c0.64,1.19,1.32,2.33,2.01,3.46
				c6.93,11.23,15.63,19.78,15.63,41.3c0,21.52-8.7,30.1-15.63,41.32c-0.69,1.12-1.37,2.26-2.01,3.46
				c-3.62,6.65-6.35,14.64-6.35,26.7c0,12.08,2.74,20.07,6.35,26.72c0.64,1.19,1.32,2.33,2.01,3.46
				c6.93,11.23,15.63,19.78,15.63,41.3c0,21.52-8.7,30.1-15.63,41.32c-0.69,1.12-1.37,2.26-2.01,3.46
				c-3.62,6.65-6.35,14.64-6.35,26.7c0,12.08,2.74,20.07,6.35,26.72c0.64,1.19,1.32,2.33,2.01,3.46
				c6.93,11.23,15.63,19.78,15.63,41.3c0,21.52-8.7,30.1-15.63,41.32c-0.69,1.12-1.37,2.26-2.01,3.46
				c-3.62,6.65-6.35,14.64-6.35,26.7c0,12.08,2.74,20.07,6.35,26.72c0.64,1.19,1.32,2.33,2.01,3.46
				c6.93,11.23,15.63,19.78,15.63,41.3c0,21.52-8.7,30.1-15.63,41.32c-0.69,1.12-1.37,2.26-2.01,3.46
				c-3.62,6.66-6.35,14.64-6.35,26.7c0,12.08,2.74,20.07,6.35,26.72c0.64,1.19,1.32,2.33,2.01,3.46
				c6.93,11.23,15.63,19.78,15.63,41.3c0,20.04-8.69,30.81-15.63,42.54c-0.69,1.16-1.36,2.34-2.01,3.54
				C571.3,1306.35,571.15,1306.65,571,1306.93z"/>
		</g>
	</g>
</g>
</svg>
