<svg id="eCcyTPAfO4K1" xmlns="http://www.w3.org/2000/svg" xmlns:xlink="http://www.w3.org/1999/xlink" viewBox="0 0 1306.94 1055.19" shape-rendering="geometricPrecision" text-rendering="geometricPrecision"><defs><rect id="eCcyTPAfO4K2" width="1306.94" height="1134.16" rx="0" ry="0"/><rect id="eCcyTPAfO4K3" width="356.54" height="499.31" rx="0" ry="0"/></defs><g transform="matrix(0-1 1 0-1.900951 822.392)"><g><g clip-path="url(#eCcyTPAfO4K29)"><g transform="translate(233 2.881)"><path d="M572.77,140.36c.24-.49.47-.99.69-1.5c2.59-5.86,4.35-12.91,4.35-22.61c0-9.68-1.76-16.74-4.35-22.59-.22-.51-.45-1.01-.69-1.5.23.28.46.56.69.85c4.78,5.98,8.1,13.2,8.1,23.24c0,10.06-3.32,17.28-8.1,23.26-.23.28-.46.57-.69.85Z" fill="#1b1a17"/><path d="M572.77,283.1c.24-.49.47-.99.69-1.5c2.59-5.86,4.35-12.91,4.35-22.61c0-9.68-1.76-16.74-4.35-22.59-.22-.51-.45-1.01-.69-1.5.23.28.46.56.69.85c4.78,5.98,8.1,13.2,8.1,23.24v.01c0,10.05-3.32,17.27-8.1,23.25-.23.29-.46.57-.69.85Z" fill="#1b1a17"/><path d="M572.77,425.84c.24-.49.47-.99.69-1.5c2.59-5.86,4.35-12.91,4.35-22.61c0-9.68-1.76-16.74-4.35-22.59-.22-.51-.45-1.01-.69-1.5.23.28.46.56.69.85c4.78,5.98,8.1,13.21,8.1,23.24c0,10.06-3.32,17.28-8.1,23.26-.23.28-.46.57-.69.85Z" fill="#1b1a17"/><path d="M572.77,568.58c.24-.49.47-.99.69-1.5c2.59-5.85,4.35-12.91,4.35-22.59s-1.77-16.75-4.35-22.61c-.22-.51-.45-1.01-.69-1.49.23.28.46.57.69.85c4.78,5.99,8.1,13.21,8.1,23.25s-3.32,17.26-8.1,23.24c-.23.29-.46.57-.69.85Z" fill="#1b1a17"/><path d="M572.77,711.32c.24-.49.47-.99.69-1.5c2.59-5.86,4.35-12.91,4.35-22.61c0-9.68-1.76-16.74-4.35-22.59-.21-.5-.44-.99-.68-1.48.23.28.46.56.68.84c4.78,5.98,8.1,13.2,8.1,23.24c0,10.05-3.32,17.27-8.1,23.25-.23.29-.46.57-.69.85Z" fill="#1b1a17"/><path d="M572.77,854.05c.24-.49.47-.98.69-1.49c2.58-5.86,4.35-12.92,4.35-22.6c0-9.7-1.77-16.76-4.35-22.62-.22-.5-.44-.99-.68-1.47.23.28.46.55.68.84c4.78,5.98,8.1,13.19,8.1,23.25c0,10.04-3.32,17.26-8.1,23.24-.22.29-.45.57-.69.85Z" fill="#1b1a17"/><path d="M572.76,996.79c.25-.5.48-1,.7-1.51c2.58-5.86,4.35-12.92,4.35-22.6s-1.77-16.74-4.35-22.6c-.22-.5-.44-.99-.68-1.47.23.28.46.56.68.84c4.78,5.98,8.1,13.2,8.1,23.24s-3.32,17.26-8.1,23.24c-.23.29-.46.57-.7.86Z" fill="#1b1a17"/><path d="M572.77,1139.5c.24-.49.47-.99.69-1.5c2.59-5.85,4.35-12.91,4.35-22.59s-1.76-16.75-4.35-22.6c-.22-.51-.45-1-.69-1.49.23.28.46.56.69.85c4.78,5.98,8.1,13.2,8.1,23.24s-3.32,17.27-8.1,23.24c-.22.29-.45.57-.69.85Z" fill="#1b1a17"/><path d="M572.77,1284.17c.24-.49.47-.99.69-1.5c2.59-5.87,4.35-12.93,4.35-22.64c0-9.69-1.76-16.77-4.35-22.62-.21-.5-.44-.99-.68-1.48.23.28.46.56.68.84c4.78,5.99,8.1,13.22,8.1,23.28s-3.32,17.3-8.1,23.28c-.23.28-.46.56-.69.84Z" fill="#1b1a17"/><path d="M-465.8,1306.94v-1308.9h1038.37c-.36.73-.73,1.44-1.12,2.14-4.23,7.79-9.66,13.78-13.38,22.36-.03.08-.06.15-.1.24-2.46,5.77-4.14,12.71-4.14,22.16s1.68,16.39,4.14,22.16c.03.09.07.16.1.24c3.71,8.56,9.15,14.56,13.38,22.35.45.83.89,1.68,1.3,2.56.01.01.02.02.02.03.24.49.47.99.69,1.5c2.59,5.86,4.35,12.93,4.35,22.62c0,9.71-1.76,16.78-4.35,22.64-.22.51-.45,1.01-.69,1.5c0,.01-.01.02-.02.03-.41.88-.85,1.73-1.3,2.56-4.23,7.79-9.67,13.77-13.38,22.33-.03.08-.06.17-.1.24-2.46,5.77-4.14,12.71-4.14,22.16s1.68,16.39,4.14,22.16c.03.09.07.16.1.24c3.71,8.56,9.15,14.56,13.38,22.35.45.83.89,1.68,1.3,2.56.01.01.02.02.02.03.24.49.47.99.69,1.5c2.59,5.86,4.35,12.93,4.35,22.62c0,9.71-1.76,16.78-4.35,22.64-.22.51-.45,1.01-.69,1.5c0,.01-.01.02-.02.03-.41.88-.85,1.73-1.3,2.56-4.23,7.79-9.67,13.77-13.38,22.33-.03.08-.06.17-.1.24-2.46,5.77-4.14,12.71-4.14,22.16s1.68,16.39,4.14,22.16c.03.09.07.17.1.24c3.71,8.56,9.15,14.56,13.38,22.35.45.83.89,1.68,1.3,2.56.01.01.02.02.02.03.24.49.47.99.69,1.5c2.59,5.86,4.35,12.93,4.35,22.62c0,9.71-1.76,16.78-4.35,22.64-.22.51-.45,1.01-.69,1.5c0,.01-.01.02-.02.03-.41.88-.85,1.73-1.3,2.56-4.23,7.79-9.67,13.77-13.38,22.34-.03.07-.06.16-.1.23-2.46,5.77-4.14,12.71-4.14,22.16s1.68,16.39,4.14,22.16c.03.09.07.17.1.24c3.71,8.56,9.15,14.56,13.38,22.35.45.83.89,1.69,1.3,2.57.01.01.02.02.02.03.24.48.47.98.69,1.49c2.58,5.87,4.35,12.95,4.35,22.64s-1.76,16.77-4.35,22.62c-.22.51-.45,1.01-.69,1.5c0,.01-.01.02-.02.03-.41.88-.85,1.73-1.3,2.56-4.23,7.79-9.67,13.79-13.38,22.35-.03.08-.06.15-.1.24-2.46,5.77-4.14,12.72-4.14,22.16s1.68,16.39,4.14,22.16c.03.07.07.15.1.24c3.71,8.56,9.15,14.54,13.38,22.33.46.85.91,1.71,1.33,2.6v.01c.24.49.47.98.68,1.48c2.59,5.86,4.35,12.93,4.35,22.62c0,9.71-1.76,16.78-4.35,22.64-.22.51-.45,1.01-.69,1.5c0,.01-.01.02-.02.03-.41.88-.85,1.73-1.3,2.56-4.23,7.8-9.67,13.77-13.38,22.34-.03.07-.06.16-.1.23-2.46,5.78-4.14,12.71-4.14,22.17c0,9.45,1.68,16.39,4.14,22.16.03.07.07.16.1.23c3.71,8.57,9.15,14.55,13.38,22.34.46.85.91,1.71,1.33,2.6v.01c.24.48.46.97.68,1.47c2.58,5.87,4.35,12.94,4.35,22.65c0,9.69-1.77,16.77-4.35,22.63-.22.51-.45,1-.69,1.49c0,.01-.01.02-.02.03-.41.88-.85,1.73-1.3,2.56-4.23,7.79-9.67,13.77-13.38,22.33-.03.09-.06.17-.1.24-2.46,5.77-4.14,12.73-4.14,22.16c0,9.44,1.68,16.39,4.14,22.16.03.09.07.17.1.24c3.71,8.56,9.15,14.56,13.38,22.35.46.85.91,1.71,1.33,2.6v.01c.24.48.46.97.68,1.47c2.58,5.87,4.35,12.94,4.35,22.63s-1.77,16.77-4.35,22.63c-.22.51-.45,1.01-.7,1.51c0,0,0,.01-.01.02-.41.87-.85,1.72-1.3,2.55-4.23,7.8-9.67,13.79-13.38,22.35-.03.08-.06.15-.1.24-2.46,5.77-4.14,12.73-4.14,22.16c0,9.44,1.68,16.39,4.14,22.16.03.08.07.15.1.24c3.71,8.56,9.15,14.54,13.38,22.34.45.83.89,1.68,1.3,2.56.01.01.02.02.02.03.24.49.47.98.69,1.49c2.59,5.86,4.35,12.94,4.35,22.63s-1.76,16.77-4.35,22.62c-.22.51-.45,1.01-.69,1.5c0,.01-.01.02-.02.03-.41.88-.85,1.73-1.3,2.56-4.23,7.79-9.67,13.77-13.38,22.33-.03.09-.06.17-.1.24-2.46,5.77-4.14,12.73-4.14,22.16c0,9.44,1.68,16.39,4.14,22.16.03.09.07.17.1.24c3.71,8.56,9.15,14.56,13.38,22.35.46.85.91,1.71,1.33,2.6v.01c.24.49.47.98.68,1.48c2.59,5.86,4.35,12.93,4.35,22.62c0,9.71-1.76,16.78-4.35,22.64-.22.51-.45,1.01-.69,1.5c0,.01-.01.02-.02.03-.41.88-.85,1.73-1.3,2.56-3.85,7.1-8.72,12.72-12.37,20.16h11.92c.15-.28.3-.57.45-.85.65-1.19,1.32-2.37,2.01-3.54v4.4" fill="#1b1a17"/><path d="M573.46,93.66c-.22-.51-.45-1.01-.69-1.5c0-.01-.01-.02-.02-.03-.41-.88-.85-1.73-1.3-2.56-4.23-7.78-9.67-13.77-13.38-22.32-.03-.08-.07-.15-.1-.24-2.46-5.76-4.14-12.69-4.14-22.13s1.68-16.37,4.14-22.13c.04-.09.07-.16.1-.24c3.72-8.57,9.15-14.55,13.38-22.33.39-.7.76-1.41,1.12-2.14h.89v16.68c-.69,1.12-1.36,2.26-2.01,3.45-3.62,6.67-6.35,14.64-6.35,26.68c0,12.06,2.74,20.03,6.35,26.68.64,1.19,1.32,2.33,2.01,3.45v18.68Z" fill="#1b1a17"/><path d="M573.46,236.4c-.22-.51-.45-1.01-.69-1.5c0-.01-.01-.02-.02-.03-.41-.88-.85-1.73-1.3-2.56-4.23-7.78-9.67-13.77-13.38-22.32-.03-.08-.07-.15-.1-.24-2.46-5.76-4.14-12.69-4.14-22.13s1.68-16.37,4.14-22.13c.04-.07.07-.16.1-.24c3.71-8.55,9.15-14.52,13.38-22.3.45-.83.89-1.68,1.3-2.56.01-.01.02-.02.02-.03.24-.49.47-.99.69-1.5v18.61c-.7,1.12-1.37,2.26-2.01,3.44-3.62,6.65-6.35,14.63-6.35,26.67c0,12.05,2.74,20.03,6.35,26.68.64,1.19,1.32,2.33,2.01,3.45v18.69Z" fill="#1b1a17"/><path d="M573.46,379.14c-.22-.51-.45-1.01-.69-1.5c0-.01-.01-.02-.02-.03-.41-.88-.85-1.73-1.3-2.56-4.23-7.78-9.67-13.77-13.38-22.32-.03-.07-.07-.15-.1-.24-2.46-5.76-4.14-12.69-4.14-22.13s1.68-16.37,4.14-22.13c.04-.07.07-.16.1-.24c3.71-8.55,9.15-14.52,13.38-22.3.45-.83.89-1.68,1.3-2.56.01-.01.02-.02.02-.03.24-.49.47-.99.69-1.5v18.59c-.69,1.12-1.37,2.26-2.01,3.45-3.62,6.64-6.35,14.62-6.35,26.68c0,12.04,2.74,20.02,6.35,26.67.64,1.18,1.31,2.32,2.01,3.44v18.71Z" fill="#1b1a17"/><path d="M573.46,521.88c-.22-.51-.45-1.01-.69-1.49c0-.01-.01-.02-.02-.03-.41-.88-.85-1.74-1.3-2.57-4.23-7.78-9.67-13.77-13.38-22.32-.03-.07-.07-.15-.1-.24-2.46-5.76-4.14-12.69-4.14-22.13s1.68-16.37,4.14-22.13c.04-.07.07-.16.1-.23c3.71-8.56,9.15-14.53,13.38-22.31.45-.83.89-1.68,1.3-2.56.01-.01.02-.02.02-.03.24-.49.47-.99.69-1.5v18.59c-.7,1.12-1.37,2.26-2.01,3.44-3.62,6.64-6.35,14.62-6.35,26.68c0,12.05,2.74,20.03,6.35,26.68.64,1.18,1.31,2.32,2.01,3.44v18.71Z" fill="#1b1a17"/><path d="M573.46,664.62c-.21-.5-.44-.99-.68-1.48v-.01c-.42-.89-.87-1.75-1.33-2.6-4.23-7.78-9.67-13.75-13.38-22.3-.03-.09-.07-.17-.1-.24-2.46-5.76-4.14-12.7-4.14-22.13s1.68-16.37,4.14-22.13c.04-.09.07-.16.1-.24c3.71-8.55,9.15-14.54,13.38-22.32.45-.83.89-1.68,1.3-2.56.01-.01.02-.02.02-.03.24-.49.47-.99.69-1.5v18.58c-.69,1.12-1.37,2.26-2.01,3.45-3.62,6.64-6.35,14.62-6.35,26.66c0,12.06,2.74,20.03,6.35,26.68.64,1.19,1.32,2.33,2.01,3.45v18.72Z" fill="#1b1a17"/><path d="M573.46,807.34c-.22-.5-.44-.99-.68-1.47v-.01c-.42-.89-.87-1.75-1.33-2.6-4.23-7.78-9.67-13.75-13.38-22.31-.03-.07-.07-.16-.1-.23-2.46-5.76-4.14-12.69-4.14-22.13c0-9.45,1.68-16.37,4.14-22.14.04-.07.07-.16.1-.23c3.71-8.56,9.15-14.52,13.38-22.31.45-.83.89-1.68,1.3-2.56.01-.01.02-.02.02-.03.24-.49.47-.99.69-1.5v18.58c-.69,1.12-1.37,2.26-2.01,3.45-3.62,6.64-6.35,14.62-6.35,26.66c0,12.06,2.74,20.04,6.35,26.68.64,1.19,1.32,2.33,2.01,3.45v18.7Z" fill="#1b1a17"/><path d="M573.46,950.08c-.22-.5-.44-.99-.68-1.47v-.01c-.42-.89-.87-1.75-1.33-2.6-4.23-7.78-9.67-13.77-13.38-22.32-.03-.07-.07-.15-.1-.24-2.46-5.76-4.14-12.7-4.14-22.13c0-9.42,1.68-16.37,4.14-22.13.04-.07.07-.15.1-.24c3.71-8.55,9.15-14.52,13.38-22.3.45-.83.89-1.68,1.3-2.56.01-.01.02-.02.02-.03.24-.49.47-.98.69-1.49v18.58c-.69,1.12-1.37,2.26-2.01,3.45-3.62,6.64-6.35,14.62-6.35,26.66c0,12.06,2.74,20.04,6.35,26.68.64,1.19,1.32,2.33,2.01,3.45v18.7Z" fill="#1b1a17"/><path d="M573.46,1092.81c-.22-.51-.45-1-.69-1.49c0-.01-.01-.02-.02-.03-.41-.88-.85-1.73-1.3-2.56-4.23-7.79-9.67-13.76-13.38-22.31-.03-.09-.07-.16-.1-.24-2.46-5.76-4.14-12.7-4.14-22.13c0-9.42,1.68-16.37,4.14-22.13.04-.09.07-.16.1-.24c3.71-8.55,9.15-14.53,13.38-22.32.45-.83.89-1.68,1.3-2.55.01-.01.01-.02.01-.02.25-.5.48-1,.7-1.51v18.6c-.69,1.12-1.37,2.26-2.01,3.45-3.62,6.64-6.35,14.62-6.35,26.66c0,12.06,2.74,20.04,6.35,26.68.64,1.19,1.32,2.33,2.01,3.45v18.69Z" fill="#1b1a17"/><path d="M573.46,1237.4c-.21-.5-.44-.99-.68-1.48v-.01c-.42-.89-.87-1.75-1.33-2.6-4.23-7.79-9.67-13.79-13.38-22.35-.03-.07-.07-.15-.1-.24-2.46-5.77-4.14-12.72-4.14-22.16c0-9.43,1.68-16.39,4.14-22.16.04-.07.07-.15.1-.24c3.71-8.56,9.15-14.54,13.38-22.33.45-.83.89-1.68,1.3-2.56.01-.01.02-.02.02-.03.24-.49.47-.99.69-1.5v18.65c-.69,1.12-1.37,2.26-2.01,3.46-3.62,6.66-6.35,14.64-6.35,26.7c0,12.08,2.74,20.07,6.35,26.72.64,1.19,1.32,2.33,2.01,3.46v18.67Z" fill="#1b1a17"/><path d="M571,1306.93h-11.92c3.65-7.44,8.52-13.06,12.37-20.16.45-.83.89-1.68,1.3-2.56.01-.01.02-.02.02-.03.24-.49.47-.99.69-1.5v19.87c-.69,1.16-1.36,2.34-2.01,3.54-.15.26-.3.56-.45.84Z" fill="#1b1a17"/><path d="M571,1306.93h-11.92c3.65-7.44,8.52-13.06,12.37-20.16.45-.83.89-1.68,1.3-2.56.01-.01.02-.02.02-.03.24-.49.47-.99.69-1.5c2.59-5.87,4.35-12.93,4.35-22.64c0-9.69-1.76-16.77-4.35-22.62-.21-.5-.44-.99-.68-1.48v-.01c-.42-.89-.87-1.75-1.33-2.6-4.23-7.79-9.67-13.79-13.38-22.35-.03-.07-.07-.15-.1-.24-2.46-5.77-4.14-12.72-4.14-22.16c0-9.43,1.68-16.39,4.14-22.16.04-.07.07-.15.1-.24c3.71-8.56,9.15-14.54,13.38-22.33.45-.83.89-1.68,1.3-2.56.01-.01.02-.02.02-.03.24-.49.47-.99.69-1.5c2.59-5.86,4.35-12.93,4.35-22.62s-1.76-16.78-4.35-22.63c-.22-.51-.45-1-.69-1.49c0-.01-.01-.02-.02-.03-.41-.88-.85-1.73-1.3-2.56-4.23-7.8-9.67-13.78-13.38-22.34-.03-.09-.07-.16-.1-.24-2.46-5.77-4.14-12.72-4.14-22.16c0-9.43,1.68-16.39,4.14-22.16.04-.09.07-.16.1-.24c3.71-8.56,9.15-14.55,13.38-22.35.45-.83.89-1.68,1.3-2.55.01-.01.01-.02.01-.02.25-.5.48-1,.7-1.51c2.58-5.87,4.35-12.94,4.35-22.63s-1.77-16.77-4.35-22.63c-.22-.5-.44-.99-.68-1.47v-.01c-.42-.89-.87-1.75-1.33-2.6-4.23-7.79-9.67-13.79-13.38-22.35-.03-.07-.07-.15-.1-.24-2.46-5.77-4.14-12.72-4.14-22.16c0-9.43,1.68-16.39,4.14-22.16.04-.07.07-.15.1-.24c3.71-8.56,9.15-14.54,13.38-22.33.45-.83.89-1.68,1.3-2.56.01-.01.02-.02.02-.03.24-.49.47-.98.69-1.49c2.58-5.87,4.35-12.94,4.35-22.63c0-9.71-1.77-16.79-4.35-22.65-.22-.5-.44-.99-.68-1.47v-.01c-.42-.89-.87-1.75-1.33-2.6-4.23-7.79-9.67-13.77-13.38-22.34-.03-.07-.07-.16-.1-.23-2.46-5.77-4.14-12.71-4.14-22.16c0-9.46,1.68-16.39,4.14-22.17.04-.07.07-.16.1-.23c3.71-8.57,9.15-14.54,13.38-22.34.45-.83.89-1.68,1.3-2.56.01-.01.02-.02.02-.03.24-.49.47-.99.69-1.5c2.59-5.87,4.35-12.93,4.35-22.64c0-9.69-1.76-16.77-4.35-22.62-.21-.5-.44-.99-.68-1.48v-.01c-.42-.89-.87-1.75-1.33-2.6-4.23-7.79-9.67-13.77-13.38-22.33-.03-.09-.07-.17-.1-.24-2.46-5.77-4.14-12.72-4.14-22.16s1.68-16.39,4.14-22.16c.04-.09.07-.16.1-.24c3.71-8.56,9.15-14.56,13.38-22.35.45-.83.89-1.68,1.3-2.56.01-.01.02-.02.02-.03.24-.49.47-.99.69-1.5c2.59-5.86,4.35-12.93,4.35-22.62s-1.77-16.78-4.35-22.64c-.22-.51-.45-1.01-.69-1.49c0-.01-.01-.02-.02-.03-.41-.88-.85-1.74-1.3-2.57-4.23-7.79-9.67-13.79-13.38-22.35-.03-.07-.07-.15-.1-.24-2.46-5.77-4.14-12.71-4.14-22.16s1.68-16.39,4.14-22.16c.04-.07.07-.16.1-.23c3.71-8.57,9.15-14.55,13.38-22.34.45-.83.89-1.68,1.3-2.56.01-.01.02-.02.02-.03.24-.49.47-.99.69-1.5c2.59-5.87,4.35-12.93,4.35-22.64c0-9.69-1.76-16.77-4.35-22.62-.22-.51-.45-1.01-.69-1.5c0-.01-.01-.02-.02-.03-.41-.88-.85-1.73-1.3-2.56-4.23-7.79-9.67-13.79-13.38-22.35-.03-.07-.07-.15-.1-.24-2.46-5.77-4.14-12.71-4.14-22.16s1.68-16.39,4.14-22.16c.04-.07.07-.16.1-.24c3.71-8.56,9.15-14.54,13.38-22.33.45-.83.89-1.68,1.3-2.56.01-.01.02-.02.02-.03.24-.49.47-.99.69-1.5c2.59-5.87,4.35-12.93,4.35-22.64c0-9.69-1.76-16.77-4.35-22.62-.22-.51-.45-1.01-.69-1.5c0-.01-.01-.02-.02-.03-.41-.88-.85-1.73-1.3-2.56-4.23-7.79-9.67-13.79-13.38-22.35-.03-.08-.07-.15-.1-.24-2.46-5.77-4.14-12.71-4.14-22.16s1.68-16.39,4.14-22.16c.04-.07.07-.16.1-.24c3.71-8.56,9.15-14.54,13.38-22.33.45-.83.89-1.68,1.3-2.56.01-.01.02-.02.02-.03.24-.49.47-.99.69-1.5c2.59-5.87,4.35-12.93,4.35-22.64c0-9.69-1.76-16.77-4.35-22.62-.22-.51-.45-1.01-.69-1.5c0-.01-.01-.02-.02-.03-.41-.88-.85-1.73-1.3-2.56-4.23-7.79-9.67-13.79-13.38-22.35-.03-.08-.07-.15-.1-.24-2.46-5.77-4.14-12.71-4.14-22.16s1.68-16.39,4.14-22.16c.04-.09.07-.16.1-.24c3.72-8.58,9.15-14.57,13.38-22.36.39-.7.76-1.41,1.12-2.14h11.26c-3.04,6.2-6.93,11.13-10.37,16.71-.69,1.12-1.36,2.26-2.01,3.46-3.62,6.68-6.35,14.66-6.35,26.72c0,12.08,2.74,20.06,6.35,26.72.64,1.19,1.32,2.33,2.01,3.46c6.93,11.23,15.63,19.78,15.63,41.3c0,21.53-8.71,30.1-15.63,41.31-.7,1.12-1.37,2.26-2.01,3.45-3.62,6.66-6.35,14.65-6.35,26.71c0,12.07,2.74,20.06,6.35,26.72.64,1.19,1.32,2.33,2.01,3.46c6.93,11.22,15.63,19.78,15.63,41.3c0,21.51-8.7,30.08-15.63,41.3-.69,1.12-1.37,2.26-2.01,3.46-3.62,6.65-6.35,14.64-6.35,26.72c0,12.06,2.74,20.05,6.35,26.71.64,1.18,1.31,2.32,2.01,3.45c6.92,11.22,15.63,19.78,15.63,41.31c0,21.52-8.71,30.1-15.63,41.31-.7,1.12-1.37,2.26-2.01,3.45-3.62,6.65-6.35,14.64-6.35,26.72c0,12.07,2.74,20.06,6.35,26.72.64,1.18,1.31,2.32,2.01,3.45c6.92,11.22,15.63,19.78,15.63,41.31c0,21.51-8.7,30.08-15.63,41.3-.69,1.12-1.37,2.26-2.01,3.46-3.62,6.65-6.35,14.64-6.35,26.7c0,12.08,2.74,20.06,6.35,26.72.64,1.19,1.32,2.33,2.01,3.46c6.93,11.23,15.63,19.78,15.63,41.3s-8.7,30.1-15.63,41.32c-.69,1.12-1.37,2.26-2.01,3.46-3.62,6.65-6.35,14.64-6.35,26.7c0,12.08,2.74,20.07,6.35,26.72.64,1.19,1.32,2.33,2.01,3.46c6.93,11.23,15.63,19.78,15.63,41.3s-8.7,30.1-15.63,41.32c-.69,1.12-1.37,2.26-2.01,3.46-3.62,6.65-6.35,14.64-6.35,26.7c0,12.08,2.74,20.07,6.35,26.72.64,1.19,1.32,2.33,2.01,3.46c6.93,11.23,15.63,19.78,15.63,41.3s-8.7,30.1-15.63,41.32c-.69,1.12-1.37,2.26-2.01,3.46-3.62,6.65-6.35,14.64-6.35,26.7c0,12.08,2.74,20.07,6.35,26.72.64,1.19,1.32,2.33,2.01,3.46c6.93,11.23,15.63,19.78,15.63,41.3s-8.7,30.1-15.63,41.32c-.69,1.12-1.37,2.26-2.01,3.46-3.62,6.66-6.35,14.64-6.35,26.7c0,12.08,2.74,20.07,6.35,26.72.64,1.19,1.32,2.33,2.01,3.46c6.93,11.23,15.63,19.78,15.63,41.3c0,20.04-8.69,30.81-15.63,42.54-.69,1.16-1.36,2.34-2.01,3.54-.15-.1-.3.2-.45.48Z" fill="#ef6535"/></g><clipPath id="eCcyTPAfO4K29"><use width="1306.939941" height="1134.160034" xlink:href="#eCcyTPAfO4K2" transform="translate(-319.19 89.27)"/></clipPath></g></g></g><g id="eCcyTPAfO4K31" opacity="0"><g><g clip-path="url(#eCcyTPAfO4K44)"><g><path d="M263.61,141.27c0,0,52.44-27.74,101.85,27.31l2.6-28.17c0,0-43.91-52.01-98.67-25.14l-5.78,26Z" fill="none" stroke="#ef6535" stroke-width="2.6155" stroke-miterlimit="10"/><path d="M274.93,112.79c0,0,12.73-38.06,40.04-28.52c0,0,54.6-13,50.38,53.2" fill="none" stroke="#ef6535" stroke-width="2.6155" stroke-miterlimit="10"/><path d="M263.61,141.27c0,0-32.5,6.07-20.37,25.79c0,0,21.45,32.29-4.33,39.22c0,0,29.25-1.52,24.7,12.14c0,0-14.73-15.39-26.22,3.68c0,0-6.72,9.53,7.8,36.62c0,0-17.55-32.94-27.74-28.82-10.18,4.11-35.97,8.23-53.96,32.07s-42.91,120.7-45.18,130.78c-2.28,10.08-14.02,25.68-12.05,44.85c1.97,19.18,2.3,44.21,18.23,62.73c15.93,18.53,15.93,26.65,24.7,28.6c8.78,1.95,8.78,7.15,10.4,5.85s3.58,6.18,10.08,4.23c0,0,3.9,7.8,13.33,19.5c0,0,4.88-19.5,11.7-17.55c0,0,24.38,23.73,20.48,28.93c0,0-7.48,5.85-4.23,9.1s19.5-9.43,19.5-9.43s32.83-25.35,37.38-53.96c4.55-28.6-4.88-118.64-3.25-135.87c1.62-17.23,3.25-93.94,1.63-100.76l31.53-17.88-31.53-42.26" fill="none" stroke="#ef6535" stroke-width="2.6155" stroke-miterlimit="10"/><path d="M190.17,270.07c0,0,3.9,68.04,0,79.31s5.2,81.48,1.73,91.88-2.6,29.47-12.57,11.27c0,0,23.4,34.24,22.54,45.51-.87,11.27.02,39.44.02,39.44" fill="none" stroke="#ef6535" stroke-width="2.6155" stroke-miterlimit="10"/><path d="M378.38,221.09c14.15,7.7,42.14,27.43,43.11,63.32c1.3,48.12-5.64,103.15,1.3,107.92s11.27,13.44,8.67,26.01c0,0,28.61,1.3,28.61,12.57s0,112.24-22.97,136.52c0,0-.86-22.97-7.8-37.27s-25.33-82.78-31.95-109.21C390.73,394.51,376,286.6,365.59,270.99c0,0,1.55-5.91,2.95-15.38" fill="none" stroke="#ef6535" stroke-width="2.6155" stroke-miterlimit="10"/><path d="M325.38,258.05c0,0,51.96-7.38,50.35,1.57s6.65-33.73.08-46.3-50.43,44.73-50.43,44.73Z" fill="none" stroke="#ef6535" stroke-width="2.6155" stroke-miterlimit="10"/><path d="M371.02,159.24c3.47,22.97,35.54,20.49,35.54,20.49-23.4,4.02-8.23,38.46-8.23,38.46-6.41,1.07-10.9,3.47-14.04,6.39" fill="none" stroke="#ef6535" stroke-width="2.6155" stroke-miterlimit="10"/><line x1="378.32" y1="234.15" x2="378.32" y2="234.14" fill="none" stroke="#ef6535" stroke-width="2.6155" stroke-miterlimit="10"/><path d="M265.07,143.33c0,0-14.64,70.93,21.42,81.29s63.19-34.62,61.22-68.27" fill="none" stroke="#ef6535" stroke-width="2.6155" stroke-miterlimit="10"/></g><clipPath id="eCcyTPAfO4K44"><use width="356.540009" height="499.309998" xlink:href="#eCcyTPAfO4K3" transform="translate(104.78 81.48)"/></clipPath></g></g></g><script><![CDATA[!function(t,n){"object"==typeof exports&&"undefined"!=typeof module?module.exports=n():"function"==typeof define&&define.amd?define(n):((t="undefined"!=typeof globalThis?globalThis:t||self).__SVGATOR_PLAYER__=t.__SVGATOR_PLAYER__||{},t.__SVGATOR_PLAYER__["5c7f360c"]=n())}(this,(function(){"use strict";function t(t,n){var e=Object.keys(t);if(Object.getOwnPropertySymbols){var r=Object.getOwnPropertySymbols(t);n&&(r=r.filter((function(n){return Object.getOwnPropertyDescriptor(t,n).enumerable}))),e.push.apply(e,r)}return e}function n(n){for(var e=1;e<arguments.length;e++){var r=null!=arguments[e]?arguments[e]:{};e%2?t(Object(r),!0).forEach((function(t){o(n,t,r[t])})):Object.getOwnPropertyDescriptors?Object.defineProperties(n,Object.getOwnPropertyDescriptors(r)):t(Object(r)).forEach((function(t){Object.defineProperty(n,t,Object.getOwnPropertyDescriptor(r,t))}))}return n}function e(t){return(e="function"==typeof Symbol&&"symbol"==typeof Symbol.iterator?function(t){return typeof t}:function(t){return t&&"function"==typeof Symbol&&t.constructor===Symbol&&t!==Symbol.prototype?"symbol":typeof t})(t)}function r(t,n){if(!(t instanceof n))throw new TypeError("Cannot call a class as a function")}function i(t,n){for(var e=0;e<n.length;e++){var r=n[e];r.enumerable=r.enumerable||!1,r.configurable=!0,"value"in r&&(r.writable=!0),Object.defineProperty(t,r.key,r)}}function u(t,n,e){return n&&i(t.prototype,n),e&&i(t,e),t}function o(t,n,e){return n in t?Object.defineProperty(t,n,{value:e,enumerable:!0,configurable:!0,writable:!0}):t[n]=e,t}function a(t){return(a=Object.setPrototypeOf?Object.getPrototypeOf:function(t){return t.__proto__||Object.getPrototypeOf(t)})(t)}function l(t,n){return(l=Object.setPrototypeOf||function(t,n){return t.__proto__=n,t})(t,n)}function s(){if("undefined"==typeof Reflect||!Reflect.construct)return!1;if(Reflect.construct.sham)return!1;if("function"==typeof Proxy)return!0;try{return Boolean.prototype.valueOf.call(Reflect.construct(Boolean,[],(function(){}))),!0}catch(t){return!1}}function f(t,n,e){return(f=s()?Reflect.construct:function(t,n,e){var r=[null];r.push.apply(r,n);var i=new(Function.bind.apply(t,r));return e&&l(i,e.prototype),i}).apply(null,arguments)}function c(t,n){if(n&&("object"==typeof n||"function"==typeof n))return n;if(void 0!==n)throw new TypeError("Derived constructors may only return object or undefined");return function(t){if(void 0===t)throw new ReferenceError("this hasn't been initialised - super() hasn't been called");return t}(t)}function h(t,n,e){return(h="undefined"!=typeof Reflect&&Reflect.get?Reflect.get:function(t,n,e){var r=function(t,n){for(;!Object.prototype.hasOwnProperty.call(t,n)&&null!==(t=a(t)););return t}(t,n);if(r){var i=Object.getOwnPropertyDescriptor(r,n);return i.get?i.get.call(e):i.value}})(t,n,e||t)}function v(t){return function(t){if(Array.isArray(t))return y(t)}(t)||function(t){if("undefined"!=typeof Symbol&&null!=t[Symbol.iterator]||null!=t["@@iterator"])return Array.from(t)}(t)||function(t,n){if(!t)return;if("string"==typeof t)return y(t,n);var e=Object.prototype.toString.call(t).slice(8,-1);"Object"===e&&t.constructor&&(e=t.constructor.name);if("Map"===e||"Set"===e)return Array.from(t);if("Arguments"===e||/^(?:Ui|I)nt(?:8|16|32)(?:Clamped)?Array$/.test(e))return y(t,n)}(t)||function(){throw new TypeError("Invalid attempt to spread non-iterable instance.\nIn order to be iterable, non-array objects must have a [Symbol.iterator]() method.")}()}function y(t,n){(null==n||n>t.length)&&(n=t.length);for(var e=0,r=new Array(n);e<n;e++)r[e]=t[e];return r}Number.isInteger||(Number.isInteger=function(t){return"number"==typeof t&&isFinite(t)&&Math.floor(t)===t}),Number.EPSILON||(Number.EPSILON=2220446049250313e-31);var g=d(Math.pow(10,-6));function d(t){var n=arguments.length>1&&void 0!==arguments[1]?arguments[1]:6;if(Number.isInteger(t))return t;var e=Math.pow(10,n);return Math.round((+t+Number.EPSILON)*e)/e}function p(t,n){var e=arguments.length>2&&void 0!==arguments[2]?arguments[2]:g;return Math.abs(t-n)<e}var m=Math.PI/180;function b(t){return t}function w(t,n,e){var r=1-e;return 3*e*r*(t*r+n*e)+e*e*e}function x(){var t=arguments.length>0&&void 0!==arguments[0]?arguments[0]:0,n=arguments.length>1&&void 0!==arguments[1]?arguments[1]:0,e=arguments.length>2&&void 0!==arguments[2]?arguments[2]:1,r=arguments.length>3&&void 0!==arguments[3]?arguments[3]:1;return t<0||t>1||e<0||e>1?null:p(t,n)&&p(e,r)?b:function(i){if(i<=0)return t>0?i*n/t:0===n&&e>0?i*r/e:0;if(i>=1)return e<1?1+(i-1)*(r-1)/(e-1):1===e&&t<1?1+(i-1)*(n-1)/(t-1):1;for(var u,o=0,a=1;o<a;){var l=w(t,e,u=(o+a)/2);if(p(i,l))break;l<i?o=u:a=u}return w(n,r,u)}}function A(){return 1}function k(t){return 1===t?1:0}function _(){var t=arguments.length>0&&void 0!==arguments[0]?arguments[0]:1,n=arguments.length>1&&void 0!==arguments[1]?arguments[1]:0;if(1===t){if(0===n)return k;if(1===n)return A}var e=1/t;return function(t){return t>=1?1:(t+=n*e)-t%e}}var S=Math.sin,O=Math.cos,j=Math.acos,M=Math.asin,P=Math.tan,E=Math.atan2,I=Math.PI/180,R=180/Math.PI,F=Math.sqrt,N=function(){function t(){var n=arguments.length>0&&void 0!==arguments[0]?arguments[0]:1,e=arguments.length>1&&void 0!==arguments[1]?arguments[1]:0,i=arguments.length>2&&void 0!==arguments[2]?arguments[2]:0,u=arguments.length>3&&void 0!==arguments[3]?arguments[3]:1,o=arguments.length>4&&void 0!==arguments[4]?arguments[4]:0,a=arguments.length>5&&void 0!==arguments[5]?arguments[5]:0;r(this,t),this.m=[n,e,i,u,o,a],this.i=null,this.w=null,this.s=null}return u(t,[{key:"determinant",get:function(){var t=this.m;return t[0]*t[3]-t[1]*t[2]}},{key:"isIdentity",get:function(){if(null===this.i){var t=this.m;this.i=1===t[0]&&0===t[1]&&0===t[2]&&1===t[3]&&0===t[4]&&0===t[5]}return this.i}},{key:"point",value:function(t,n){var e=this.m;return{x:e[0]*t+e[2]*n+e[4],y:e[1]*t+e[3]*n+e[5]}}},{key:"translateSelf",value:function(){var t=arguments.length>0&&void 0!==arguments[0]?arguments[0]:0,n=arguments.length>1&&void 0!==arguments[1]?arguments[1]:0;if(!t&&!n)return this;var e=this.m;return e[4]+=e[0]*t+e[2]*n,e[5]+=e[1]*t+e[3]*n,this.w=this.s=this.i=null,this}},{key:"rotateSelf",value:function(){var t=arguments.length>0&&void 0!==arguments[0]?arguments[0]:0;if(t%=360){var n=S(t*=I),e=O(t),r=this.m,i=r[0],u=r[1];r[0]=i*e+r[2]*n,r[1]=u*e+r[3]*n,r[2]=r[2]*e-i*n,r[3]=r[3]*e-u*n,this.w=this.s=this.i=null}return this}},{key:"scaleSelf",value:function(){var t=arguments.length>0&&void 0!==arguments[0]?arguments[0]:1,n=arguments.length>1&&void 0!==arguments[1]?arguments[1]:1;if(1!==t||1!==n){var e=this.m;e[0]*=t,e[1]*=t,e[2]*=n,e[3]*=n,this.w=this.s=this.i=null}return this}},{key:"skewSelf",value:function(t,n){if(n%=360,(t%=360)||n){var e=this.m,r=e[0],i=e[1],u=e[2],o=e[3];t&&(t=P(t*I),e[2]+=r*t,e[3]+=i*t),n&&(n=P(n*I),e[0]+=u*n,e[1]+=o*n),this.w=this.s=this.i=null}return this}},{key:"resetSelf",value:function(){var t=arguments.length>0&&void 0!==arguments[0]?arguments[0]:1,n=arguments.length>1&&void 0!==arguments[1]?arguments[1]:0,e=arguments.length>2&&void 0!==arguments[2]?arguments[2]:0,r=arguments.length>3&&void 0!==arguments[3]?arguments[3]:1,i=arguments.length>4&&void 0!==arguments[4]?arguments[4]:0,u=arguments.length>5&&void 0!==arguments[5]?arguments[5]:0,o=this.m;return o[0]=t,o[1]=n,o[2]=e,o[3]=r,o[4]=i,o[5]=u,this.w=this.s=this.i=null,this}},{key:"recomposeSelf",value:function(){var t=arguments.length>0&&void 0!==arguments[0]?arguments[0]:null,n=arguments.length>1&&void 0!==arguments[1]?arguments[1]:null,e=arguments.length>2&&void 0!==arguments[2]?arguments[2]:null,r=arguments.length>3&&void 0!==arguments[3]?arguments[3]:null,i=arguments.length>4&&void 0!==arguments[4]?arguments[4]:null;return this.isIdentity||this.resetSelf(),t&&(t.x||t.y)&&this.translateSelf(t.x,t.y),n&&this.rotateSelf(n),e&&(e.x&&this.skewSelf(e.x,0),e.y&&this.skewSelf(0,e.y)),!r||1===r.x&&1===r.y||this.scaleSelf(r.x,r.y),i&&(i.x||i.y)&&this.translateSelf(i.x,i.y),this}},{key:"decompose",value:function(){var t=arguments.length>0&&void 0!==arguments[0]?arguments[0]:0,n=arguments.length>1&&void 0!==arguments[1]?arguments[1]:0,e=this.m,r=e[0]*e[0]+e[1]*e[1],i=[[e[0],e[1]],[e[2],e[3]]],u=F(r);if(0===u)return{origin:{x:d(e[4]),y:d(e[5])},translate:{x:d(t),y:d(n)},scale:{x:0,y:0},skew:{x:0,y:0},rotate:0};i[0][0]/=u,i[0][1]/=u;var o=e[0]*e[3]-e[1]*e[2]<0;o&&(u=-u);var a=i[0][0]*i[1][0]+i[0][1]*i[1][1];i[1][0]-=i[0][0]*a,i[1][1]-=i[0][1]*a;var l=F(i[1][0]*i[1][0]+i[1][1]*i[1][1]);if(0===l)return{origin:{x:d(e[4]),y:d(e[5])},translate:{x:d(t),y:d(n)},scale:{x:d(u),y:0},skew:{x:0,y:0},rotate:0};i[1][0]/=l,i[1][1]/=l,a/=l;var s=0;return i[1][1]<0?(s=j(i[1][1])*R,i[0][1]<0&&(s=360-s)):s=M(i[0][1])*R,o&&(s=-s),a=E(a,F(i[0][0]*i[0][0]+i[0][1]*i[0][1]))*R,o&&(a=-a),{origin:{x:d(e[4]),y:d(e[5])},translate:{x:d(t),y:d(n)},scale:{x:d(u),y:d(l)},skew:{x:d(a),y:0},rotate:d(s)}}},{key:"clone",value:function(){var t=this.m;return new this.constructor(t[0],t[1],t[2],t[3],t[4],t[5])}},{key:"toString",value:function(){var t=arguments.length>0&&void 0!==arguments[0]?arguments[0]:" ";if(null===this.s){var n=this.m.map((function(t){return d(t)}));1===n[0]&&0===n[1]&&0===n[2]&&1===n[3]?this.s="translate("+n[4]+t+n[5]+")":this.s="matrix("+n.join(t)+")"}return this.s}}],[{key:"create",value:function(t){return t?Array.isArray(t)?f(this,v(t)):t instanceof this?t.clone():(new this).recomposeSelf(t.origin,t.rotate,t.skew,t.scale,t.translate):new this}}]),t}();function T(t,n,e){return t>=.5?e:n}function q(t,n,e){return 0===t||n===e?n:t*(e-n)+n}function B(t,n,e){var r=q(t,n,e);return r<=0?0:r}function L(t,n,e){var r=q(t,n,e);return r<=0?0:r>=1?1:r}function C(t,n,e){return 0===t?n:1===t?e:{x:q(t,n.x,e.x),y:q(t,n.y,e.y)}}function D(t,n,e){var r=function(t,n,e){return Math.round(q(t,n,e))}(t,n,e);return r<=0?0:r>=255?255:r}function z(t,n,e){return 0===t?n:1===t?e:{r:D(t,n.r,e.r),g:D(t,n.g,e.g),b:D(t,n.b,e.b),a:q(t,null==n.a?1:n.a,null==e.a?1:e.a)}}function V(t,n){for(var e=[],r=0;r<t;r++)e.push(n);return e}function G(t,n){if(--n<=0)return t;var e=(t=Object.assign([],t)).length;do{for(var r=0;r<e;r++)t.push(t[r])}while(--n>0);return t}var Y,$=function(){function t(n){r(this,t),this.list=n,this.length=n.length}return u(t,[{key:"setAttribute",value:function(t,n){for(var e=this.list,r=0;r<this.length;r++)e[r].setAttribute(t,n)}},{key:"removeAttribute",value:function(t){for(var n=this.list,e=0;e<this.length;e++)n[e].removeAttribute(t)}},{key:"style",value:function(t,n){for(var e=this.list,r=0;r<this.length;r++)e[r].style[t]=n}}]),t}(),U=/-./g,Q=function(t,n){return n.toUpperCase()};function H(t){return"function"==typeof t?t:T}function J(t){return t?"function"==typeof t?t:Array.isArray(t)?function(t){var n=arguments.length>1&&void 0!==arguments[1]?arguments[1]:b;if(!Array.isArray(t))return n;switch(t.length){case 1:return _(t[0])||n;case 2:return _(t[0],t[1])||n;case 4:return x(t[0],t[1],t[2],t[3])||n}return n}(t,null):function(t,n){var e=arguments.length>2&&void 0!==arguments[2]?arguments[2]:b;switch(t){case"linear":return b;case"steps":return _(n.steps||1,n.jump||0)||e;case"bezier":case"cubic-bezier":return x(n.x1||0,n.y1||0,n.x2||0,n.y2||0)||e}return e}(t.type,t.value,null):null}function Z(t,n,e){var r=arguments.length>3&&void 0!==arguments[3]&&arguments[3],i=n.length-1;if(t<=n[0].t)return r?[0,0,n[0].v]:n[0].v;if(t>=n[i].t)return r?[i,1,n[i].v]:n[i].v;var u,o=n[0],a=null;for(u=1;u<=i;u++){if(!(t>n[u].t)){a=n[u];break}o=n[u]}return null==a?r?[i,1,n[i].v]:n[i].v:o.t===a.t?r?[u,1,a.v]:a.v:(t=(t-o.t)/(a.t-o.t),o.e&&(t=o.e(t)),r?[u,t,e(t,o.v,a.v)]:e(t,o.v,a.v))}function K(t,n){var e=arguments.length>2&&void 0!==arguments[2]?arguments[2]:null;return t&&t.length?"function"!=typeof n?null:("function"!=typeof e&&(e=null),function(r){var i=Z(r,t,n);return null!=i&&e&&(i=e(i)),i}):null}function W(t,n){return t.t-n.t}function X(t,n,r,i,u){var o,a="@"===r[0],l="#"===r[0],s=Y[r],f=T;switch(a?(o=r.substr(1),r=o.replace(U,Q)):l&&(r=r.substr(1)),e(s)){case"function":if(f=s(i,u,Z,J,r,a,n,t),l)return f;break;case"string":f=K(i,H(s));break;case"object":if((f=K(i,H(s.i),s.f))&&"function"==typeof s.u)return s.u(n,f,r,a,t)}return f?function(t,n,e){if(arguments.length>3&&void 0!==arguments[3]&&arguments[3])return t instanceof $?function(r){return t.style(n,e(r))}:function(r){return t.style[n]=e(r)};if(Array.isArray(n)){var r=n.length;return function(i){var u=e(i);if(null==u)for(var o=0;o<r;o++)t[o].removeAttribute(n);else for(var a=0;a<r;a++)t[a].setAttribute(n,u)}}return function(r){var i=e(r);null==i?t.removeAttribute(n):t.setAttribute(n,i)}}(n,r,f,a):null}function tt(t,n,r,i){if(!i||"object"!==e(i))return null;var u=null,o=null;return Array.isArray(i)?o=function(t){if(!t||!t.length)return null;for(var n=0;n<t.length;n++)t[n].e&&(t[n].e=J(t[n].e));return t.sort(W)}(i):(o=i.keys,u=i.data||null),o?X(t,n,r,o,u):null}function nt(t,n,e){if(!e)return null;var r=[];for(var i in e)if(e.hasOwnProperty(i)){var u=tt(t,n,i,e[i]);u&&r.push(u)}return r.length?r:null}function et(t,n){if(!n.settings.duration||n.settings.duration<0)return null;var e,r,i,u,o,a=function(t,n){if(!n)return null;var e=[];if(Array.isArray(n))for(var r=n.length,i=0;i<r;i++){var u=n[i];if(2===u.length){var o=null;if("string"==typeof u[0])o=t.getElementById(u[0]);else if(Array.isArray(u[0])){o=[];for(var a=0;a<u[0].length;a++)if("string"==typeof u[0][a]){var l=t.getElementById(u[0][a]);l&&o.push(l)}o=o.length?1===o.length?o[0]:new $(o):null}if(o){var s=nt(t,o,u[1]);s&&(e=e.concat(s))}}}else for(var f in n)if(n.hasOwnProperty(f)){var c=t.getElementById(f);if(c){var h=nt(t,c,n[f]);h&&(e=e.concat(h))}}return e.length?e:null}(t,n.elements);return a?(e=a,r=n.settings,i=r.duration,u=e.length,o=null,function(t,n){var a=r.iterations||1/0,l=(r.alternate&&a%2==0)^r.direction>0?i:0,s=t%i,f=1+(t-s)/i;n*=r.direction,r.alternate&&f%2==0&&(n=-n);var c=!1;if(f>a)s=l,c=!0,-1===r.fill&&(s=r.direction>0?0:i);else if(n<0&&(s=i-s),s===o)return!1;o=s;for(var h=0;h<u;h++)e[h](s);return c}):null}function rt(t,n){if(Y=n,!t||!t.root||!Array.isArray(t.animations))return null;var e=function(t){for(var n=document.getElementsByTagName("svg"),e=0;e<n.length;e++)if(n[e].id===t.root&&!n[e].svgatorAnimation)return n[e].svgatorAnimation=!0,n[e];return null}(t);if(!e)return null;var r=t.animations.map((function(t){return et(e,t)})).filter((function(t){return!!t}));return r.length?{svg:e,animations:r,animationSettings:t.animationSettings,options:t.options||void 0}:null}function it(t){return+("0x"+(t.replace(/[^0-9a-fA-F]+/g,"")||27))}function ut(t,n,e){return!t||!e||n>t.length?t:t.substring(0,n)+ut(t.substring(n+1),e,e)}function ot(t){var n=arguments.length>1&&void 0!==arguments[1]?arguments[1]:27;return!t||t%n?t%n:ot(t/n,n)}function at(t,n,e){if(t&&t.length){var r=it(e),i=it(n),u=ot(r)+5,o=ut(t,ot(r,5),u);return o=o.replace(/\x7c$/g,"==").replace(/\x2f$/g,"="),o=function(t,n,e){var r=+("0x"+t.substring(0,4));t=t.substring(4);for(var i=n%r+e%27,u=[],o=0;o<t.length;o+=2)if("|"!==t[o]){var a=+("0x"+t[o]+t[o+1])-i;u.push(a)}else{var l=+("0x"+t.substring(o+1,o+1+4))-i;o+=3,u.push(l)}return String.fromCharCode.apply(String,u)}(o=(o=atob(o)).replace(/[\x41-\x5A]/g,""),i,r),o=JSON.parse(o)}}var lt=[{key:"alternate",def:!1},{key:"fill",def:1},{key:"iterations",def:0},{key:"direction",def:1},{key:"speed",def:1},{key:"fps",def:100}],st=function(){function t(n,e){var i=this,u=arguments.length>2&&void 0!==arguments[2]?arguments[2]:null;r(this,t),this._id=0,this._running=!1,this._rollingBack=!1,this._animations=n,this._settings=e,(!u||u<"2022-05-02")&&delete this._settings.speed,lt.forEach((function(t){i._settings[t.key]=i._settings[t.key]||t.def})),this.duration=e.duration,this.offset=e.offset||0,this.rollbackStartOffset=0}return u(t,[{key:"alternate",get:function(){return this._settings.alternate}},{key:"fill",get:function(){return this._settings.fill}},{key:"iterations",get:function(){return this._settings.iterations}},{key:"direction",get:function(){return this._settings.direction}},{key:"speed",get:function(){return this._settings.speed}},{key:"fps",get:function(){return this._settings.fps}},{key:"maxFiniteDuration",get:function(){return this.iterations>0?this.iterations*this.duration:this.duration}},{key:"_apply",value:function(t){for(var n=arguments.length>1&&void 0!==arguments[1]?arguments[1]:{},e=this._animations,r=e.length,i=0,u=0;u<r;u++)n[u]?i++:(n[u]=e[u](t,1),n[u]&&i++);return i}},{key:"_rollback",value:function(t){var n=this,e=1/0,r=null;this.rollbackStartOffset=t,this._rollingBack=!0,this._running=!0;this._id=window.requestAnimationFrame((function i(u){if(n._rollingBack){null==r&&(r=u);var o=Math.round(t-(u-r)*n.speed);if(o>n.duration&&e!==1/0){var a=!!n.alternate&&o/n.duration%2>1,l=o%n.duration;o=(l+=a?n.duration:0)||n.duration}var s=(n.fps?1e3/n.fps:0)*n.speed,f=Math.max(0,o);f<e-s&&(n.offset=f,e=f,n._apply(f));var c=n.iterations>0&&-1===n.fill&&o>=n.maxFiniteDuration;(o<=0||n.offset<o||c)&&n.stop(),n._id=window.requestAnimationFrame(i)}}))}},{key:"_start",value:function(){var t=this,n=arguments.length>0&&void 0!==arguments[0]?arguments[0]:0,e=-1/0,r=null,i={};this._running=!0;var u=function u(o){null==r&&(r=o);var a=Math.round((o-r)*t.speed+n),l=(t.fps?1e3/t.fps:0)*t.speed;if(a>e+l&&!t._rollingBack&&(t.offset=a,e=a,t._apply(a,i)===t._animations.length))return void t.pause(!0);t._id=window.requestAnimationFrame(u)};this._id=window.requestAnimationFrame(u)}},{key:"_pause",value:function(){this._id&&window.cancelAnimationFrame(this._id),this._running=!1}},{key:"play",value:function(){if(!this._running)return this._rollingBack?this._rollback(this.offset):this._start(this.offset)}},{key:"stop",value:function(){this._pause(),this.offset=0,this.rollbackStartOffset=0,this._rollingBack=!1,this._apply(0)}},{key:"reachedToEnd",value:function(){return this.iterations>0&&this.offset>=this.iterations*this.duration}},{key:"restart",value:function(){var t=arguments.length>0&&void 0!==arguments[0]&&arguments[0];this.stop(t),this.play(t)}},{key:"pause",value:function(){this._pause()}},{key:"reverse",value:function(){this.direction=-this.direction}}],[{key:"build",value:function(t,n){delete t.animationSettings,t.options=at(t.options,t.root,"5c7f360c"),t.animations.map((function(n){n.settings=at(n.s,t.root,"5c7f360c"),delete n.s,t.animationSettings||(t.animationSettings=n.settings)}));var e=t.version;if(!(t=rt(t,n)))return null;var r=t.options||{},i=new this(t.animations,t.animationSettings,e);return{el:t.svg,options:r,player:i}}},{key:"push",value:function(t){return this.build(t)}},{key:"init",value:function(){var t=this,n=window.__SVGATOR_PLAYER__&&window.__SVGATOR_PLAYER__["5c7f360c"];Array.isArray(n)&&n.splice(0).forEach((function(n){return t.build(n)}))}}]),t}();function ft(t){return d(t)+""}function ct(t){var n=arguments.length>1&&void 0!==arguments[1]?arguments[1]:" ";return t&&t.length?t.map(ft).join(n):""}function ht(t){if(!t)return"transparent";if(null==t.a||t.a>=1){var n=function(t){return 1===(t=parseInt(t).toString(16)).length?"0"+t:t},e=function(t){return t.charAt(0)===t.charAt(1)},r=n(t.r),i=n(t.g),u=n(t.b);return e(r)&&e(i)&&e(u)&&(r=r.charAt(0),i=i.charAt(0),u=u.charAt(0)),"#"+r+i+u}return"rgba("+t.r+","+t.g+","+t.b+","+t.a+")"}function vt(t){return t?"url(#"+t+")":"none"}!function(){for(var t=0,n=["ms","moz","webkit","o"],e=0;e<n.length&&!window.requestAnimationFrame;++e)window.requestAnimationFrame=window[n[e]+"RequestAnimationFrame"],window.cancelAnimationFrame=window[n[e]+"CancelAnimationFrame"]||window[n[e]+"CancelRequestAnimationFrame"];window.requestAnimationFrame||(window.requestAnimationFrame=function(n){var e=Date.now(),r=Math.max(0,16-(e-t)),i=window.setTimeout((function(){n(e+r)}),r);return t=e+r,i},window.cancelAnimationFrame=window.clearTimeout)}();var yt={f:null,i:function(t,n,e){return 0===t?n:1===t?e:{x:B(t,n.x,e.x),y:B(t,n.y,e.y)}},u:function(t,n){return function(e){var r=n(e);t.setAttribute("rx",ft(r.x)),t.setAttribute("ry",ft(r.y))}}},gt={f:null,i:function(t,n,e){return 0===t?n:1===t?e:{width:B(t,n.width,e.width),height:B(t,n.height,e.height)}},u:function(t,n){return function(e){var r=n(e);t.setAttribute("width",ft(r.width)),t.setAttribute("height",ft(r.height))}}};Object.freeze({M:2,L:2,Z:0,H:1,V:1,C:6,Q:4,T:2,S:4,A:7});var dt={},pt=null;function mt(t){var n=function(){if(pt)return pt;if("object"!==("undefined"==typeof document?"undefined":e(document))||!document.createElementNS)return{};var t=document.createElementNS("http://www.w3.org/2000/svg","svg");return t&&t.style?(t.style.position="absolute",t.style.opacity="0.01",t.style.zIndex="-9999",t.style.left="-9999px",t.style.width="1px",t.style.height="1px",pt={svg:t}):{}}().svg;if(!n)return function(t){return null};var r=document.createElementNS(n.namespaceURI,"path");r.setAttributeNS(null,"d",t),r.setAttributeNS(null,"fill","none"),r.setAttributeNS(null,"stroke","none"),n.appendChild(r);var i=r.getTotalLength();return function(t){var n=r.getPointAtLength(i*t);return{x:n.x,y:n.y}}}function bt(t){return dt[t]?dt[t]:dt[t]=mt(t)}function wt(t,n,e,r){if(!t||!r)return!1;var i=["M",t.x,t.y];if(n&&e&&(i.push("C"),i.push(n.x),i.push(n.y),i.push(e.x),i.push(e.y)),n?!e:e){var u=n||e;i.push("Q"),i.push(u.x),i.push(u.y)}return n||e||i.push("L"),i.push(r.x),i.push(r.y),i.join(" ")}function xt(t,n,e,r){var i=arguments.length>4&&void 0!==arguments[4]?arguments[4]:1,u=wt(t,n,e,r),o=bt(u);try{return o(i)}catch(t){return null}}function At(t,n,e){return t+(n-t)*e}function kt(t,n,e){var r=arguments.length>3&&void 0!==arguments[3]&&arguments[3],i={x:At(t.x,n.x,e),y:At(t.y,n.y,e)};return r&&(i.a=_t(t,n)),i}function _t(t,n){return Math.atan2(n.y-t.y,n.x-t.x)}function St(t,n,e,r){var i=1-r;return i*i*t+2*i*r*n+r*r*e}function Ot(t,n,e,r){return 2*(1-r)*(n-t)+2*r*(e-n)}function jt(t,n,e,r){var i=arguments.length>4&&void 0!==arguments[4]&&arguments[4],u=xt(t,n,null,e,r);return u||(u={x:St(t.x,n.x,e.x,r),y:St(t.y,n.y,e.y,r)}),i&&(u.a=Mt(t,n,e,r)),u}function Mt(t,n,e,r){return Math.atan2(Ot(t.y,n.y,e.y,r),Ot(t.x,n.x,e.x,r))}function Pt(t,n,e,r,i){var u=i*i;return i*u*(r-t+3*(n-e))+3*u*(t+e-2*n)+3*i*(n-t)+t}function Et(t,n,e,r,i){var u=1-i;return 3*(u*u*(n-t)+2*u*i*(e-n)+i*i*(r-e))}function It(t,n,e,r,i){var u=arguments.length>5&&void 0!==arguments[5]&&arguments[5],o=xt(t,n,e,r,i);return o||(o={x:Pt(t.x,n.x,e.x,r.x,i),y:Pt(t.y,n.y,e.y,r.y,i)}),u&&(o.a=Rt(t,n,e,r,i)),o}function Rt(t,n,e,r,i){return Math.atan2(Et(t.y,n.y,e.y,r.y,i),Et(t.x,n.x,e.x,r.x,i))}function Ft(t,n,e){var r=arguments.length>3&&void 0!==arguments[3]&&arguments[3];if(Tt(n)){if(qt(e))return jt(n,e.start,e,t,r)}else if(Tt(e)){if(Bt(n))return jt(n,n.end,e,t,r)}else{if(Bt(n))return qt(e)?It(n,n.end,e.start,e,t,r):jt(n,n.end,e,t,r);if(qt(e))return jt(n,e.start,e,t,r)}return kt(n,e,t,r)}function Nt(t,n,e){var r=Ft(t,n,e,!0);return r.a=function(t){return arguments.length>1&&void 0!==arguments[1]&&arguments[1]?t+Math.PI:t}(r.a)/m,r}function Tt(t){return!t.type||"corner"===t.type}function qt(t){return null!=t.start&&!Tt(t)}function Bt(t){return null!=t.end&&!Tt(t)}var Lt=new N;var Ct={f:ft,i:q},Dt={f:ft,i:L};function zt(t,n,e){return t.map((function(t){return function(t,n,e){var r=t.v;if(!r||"g"!==r.t||r.s||!r.v||!r.r)return t;var i=e.getElementById(r.r),u=i&&i.querySelectorAll("stop")||[];return r.s=r.v.map((function(t,n){var e=u[n]&&u[n].getAttribute("offset");return{c:t,o:e=d(parseInt(e)/100)}})),delete r.v,t}(t,0,e)}))}var Vt={gt:"gradientTransform",c:{x:"cx",y:"cy"},rd:"r",f:{x:"x1",y:"y1"},to:{x:"x2",y:"y2"}};function Gt(t,n,r,i,u,o,a,l){return zt(t,0,l),n=function(t,n,e){for(var r,i,u,o=t.length-1,a={},l=0;l<=o;l++)(r=t[l]).e&&(r.e=n(r.e)),r.v&&"g"===(i=r.v).t&&i.r&&(u=e.getElementById(i.r))&&(a[i.r]={e:u,s:u.querySelectorAll("stop")});return a}(t,i,l),function(i){var u=r(i,t,Yt);if(!u)return"none";if("c"===u.t)return ht(u.v);if("g"===u.t){if(!n[u.r])return vt(u.r);var o=n[u.r];return function(t,n){for(var e=t.s,r=e.length;r<n.length;r++){var i=e[e.length-1].cloneNode();i.id=Qt(i.id),t.e.appendChild(i),e=t.s=t.e.querySelectorAll("stop")}for(var u=0,o=e.length,a=n.length-1;u<o;u++)e[u].setAttribute("stop-color",ht(n[Math.min(u,a)].c)),e[u].setAttribute("offset",n[Math.min(u,a)].o)}(o,u.s),Object.keys(Vt).forEach((function(t){if(void 0!==u[t])if("object"!==e(Vt[t])){var n,r="gt"===t?(n=u[t],Array.isArray(n)?"matrix("+n.join(" ")+")":""):u[t],i=Vt[t];o.e.setAttribute(i,r)}else Object.keys(Vt[t]).forEach((function(n){if(void 0!==u[t][n]){var e=u[t][n],r=Vt[t][n];o.e.setAttribute(r,e)}}))})),vt(u.r)}return"none"}}function Yt(t,e,r){if(0===t)return e;if(1===t)return r;if(e&&r){var i=e.t;if(i===r.t)switch(e.t){case"c":return{t:i,v:z(t,e.v,r.v)};case"g":if(e.r===r.r){var u={t:i,s:$t(t,e.s,r.s),r:e.r};return e.gt&&r.gt&&(u.gt=function(t,n,e){var r=n.length;if(r!==e.length)return T(t,n,e);for(var i=new Array(r),u=0;u<r;u++)i[u]=q(t,n[u],e[u]);return i}(t,e.gt,r.gt)),e.c?(u.c=C(t,e.c,r.c),u.rd=B(t,e.rd,r.rd)):e.f&&(u.f=C(t,e.f,r.f),u.to=C(t,e.to,r.to)),u}}if("c"===e.t&&"g"===r.t||"c"===r.t&&"g"===e.t){var o="c"===e.t?e:r,a="g"===e.t?n({},e):n({},r),l=a.s.map((function(t){return{c:o.v,o:t.o}}));return a.s="c"===e.t?$t(t,l,a.s):$t(t,a.s,l),a}}return T(t,e,r)}function $t(t,n,e){if(n.length===e.length)return n.map((function(n,r){return Ut(t,n,e[r])}));for(var r=Math.max(n.length,e.length),i=[],u=0;u<r;u++){var o=Ut(t,n[Math.min(u,n.length-1)],e[Math.min(u,e.length-1)]);i.push(o)}return i}function Ut(t,n,e){return{o:L(t,n.o,e.o||0),c:z(t,n.c,e.c||{})}}function Qt(t){return t.replace(/-fill-([0-9]+)$/,(function(t,n){return"-fill-"+(+n+1)}))}var Ht={fill:Gt,"fill-opacity":Dt,stroke:Gt,"stroke-opacity":Dt,"stroke-width":Ct,"stroke-dashoffset":{f:ft,i:q},"stroke-dasharray":{f:function(t){var n=arguments.length>1&&void 0!==arguments[1]?arguments[1]:" ";return t&&t.length>0&&(t=t.map((function(t){return d(t,4)}))),ct(t,n)},i:function(t,n,e){var r,i,u,o=n.length,a=e.length;if(o!==a)if(0===o)n=V(o=a,0);else if(0===a)a=o,e=V(o,0);else{var l=(u=(r=o)*(i=a)/function(t,n){for(var e;n;)e=n,n=t%n,t=e;return t||1}(r,i))<0?-u:u;n=G(n,Math.floor(l/o)),e=G(e,Math.floor(l/a)),o=a=l}for(var s=[],f=0;f<o;f++)s.push(d(B(t,n[f],e[f])));return s}},opacity:Dt,transform:function(t,n,r,i){if(!(t=function(t,n){if(!t||"object"!==e(t))return null;var r=!1;for(var i in t)t.hasOwnProperty(i)&&(t[i]&&t[i].length?(t[i].forEach((function(t){t.e&&(t.e=n(t.e))})),r=!0):delete t[i]);return r?t:null}(t,i)))return null;var u=function(e,i,u){var o=arguments.length>3&&void 0!==arguments[3]?arguments[3]:null;return t[e]?r(i,t[e],u):n&&n[e]?n[e]:o};return n&&n.a&&t.o?function(n){var e=r(n,t.o,Nt);return Lt.recomposeSelf(e,u("r",n,q,0)+e.a,u("k",n,C),u("s",n,C),u("t",n,C)).toString()}:function(t){return Lt.recomposeSelf(u("o",t,Ft,null),u("r",t,q,0),u("k",t,C),u("s",t,C),u("t",t,C)).toString()}},r:Ct,"#size":gt,"#radius":yt,_:function(t,n){if(Array.isArray(t))for(var e=0;e<t.length;e++)this[t[e]]=n;else this[t]=n}},Jt=function(t){!function(t,n){if("function"!=typeof n&&null!==n)throw new TypeError("Super expression must either be null or a function");t.prototype=Object.create(n&&n.prototype,{constructor:{value:t,writable:!0,configurable:!0}}),n&&l(t,n)}(o,t);var n,e,i=(n=o,e=s(),function(){var t,r=a(n);if(e){var i=a(this).constructor;t=Reflect.construct(r,arguments,i)}else t=r.apply(this,arguments);return c(this,t)});function o(){return r(this,o),i.apply(this,arguments)}return u(o,null,[{key:"build",value:function(t){var n=h(a(o),"build",this).call(this,t,Ht);if(!n)return null;n.el,n.options,function(t,n,e){t.play()}(n.player)}}]),o}(st);return Jt.init(),Jt}));
(function(s,i,o,w,a,b){w[o]=w[o]||{};w[o][s]=w[o][s]||[];w[o][s].push(i);})('5c7f360c',{"root":"eCcyTPAfO4K1","version":"2022-05-04","animations":[{"elements":{"eCcyTPAfO4K31":{"opacity":[{"t":0,"v":0},{"t":10000,"v":0.38}]}},"s":"MXDA1NGJjNjNhNWI2YjONhMmI1YWFiMGFmNjMP3YjcyNzE3MVM3MTcxSNmQ2M2E1YWFiM2E2YQTRiNWFhYjBhZjYzN2SI3MkQ2ZDYzYWFiNWEG2YjNhMmI1R2FhYjBhKZmI0NjM3YjcyNmQ2MG2E3YWFhZGFkNjM3YjBcyNmQ2M2EyYWRiNWEG2YjNhZkJhMmI1YTY2GMzdiYTdHYTJBYWRiNUGE2NmQ2M2I0YjFhNmHE2YTU2MzdiNzJiZQ|V"}],"options":"MEDAxMDg4MmY4ME04MTPZlN2Y4MTJmNDcyZjcF5N2M2ZTcxMmY4YQ|"},'__SVGATOR_PLAYER__',window)]]></script></svg>